<svg xmlns="http://www.w3.org/2000/svg" xmlns:xlink="http://www.w3.org/1999/xlink" version="1.1" class="marks" width="669" height="279" viewBox="0 0 669 279"><rect width="669" height="279" fill="white"/><g fill="none" stroke-miterlimit="10" transform="translate(61,57)"><g class="mark-group role-frame root" role="graphics-object" aria-roledescription="group mark container"><g transform="translate(0,0)"><path class="background" aria-hidden="true" d="M0.5,0.5h600v200h-600Z"/><g><g class="mark-group role-axis" aria-hidden="true"><g transform="translate(0.5,0.5)"><path class="background" aria-hidden="true" d="M0,0h0v0h0Z" pointer-events="none"/><g><g class="mark-rule role-axis-grid" pointer-events="none"><line transform="translate(0,200)" x2="600" y2="0" stroke="#33333320" stroke-width="1" stroke-dasharray="3,3" opacity="1"/><line transform="translate(0,160)" x2="600" y2="0" stroke="#33333320" stroke-width="1" stroke-dasharray="3,3" opacity="1"/><line transform="translate(0,120)" x2="600" y2="0" stroke="#33333320" stroke-width="1" stroke-dasharray="3,3" opacity="1"/><line transform="translate(0,80)" x2="600" y2="0" stroke="#33333320" stroke-width="1" stroke-dasharray="3,3" opacity="1"/><line transform="translate(0,40)" x2="600" y2="0" stroke="#33333320" stroke-width="1" stroke-dasharray="3,3" opacity="1"/><line transform="translate(0,0)" x2="600" y2="0" stroke="#33333320" stroke-width="1" stroke-dasharray="3,3" opacity="1"/></g></g><path class="foreground" aria-hidden="true" d="" pointer-events="none" display="none"/></g></g><g class="mark-group role-axis" role="graphics-symbol" aria-roledescription="axis" aria-label="X-axis for a time scale with values from Monday, 01 January 2007, 12:00:00 AM to Sunday, 01 December 2019, 12:00:00 AM"><g transform="translate(0.5,200.5)"><path class="background" aria-hidden="true" d="M0,0h0v0h0Z" pointer-events="none"/><g><g class="mark-rule role-axis-tick" pointer-events="none"><line transform="translate(0,0)" x2="0" y2="5" stroke="#888" stroke-width="1" opacity="1"/><line transform="translate(46,0)" x2="0" y2="5" stroke="#888" stroke-width="1" opacity="1"/><line transform="translate(93,0)" x2="0" y2="5" stroke="#888" stroke-width="1" opacity="1"/><line transform="translate(139,0)" x2="0" y2="5" stroke="#888" stroke-width="1" opacity="1"/><line transform="translate(186,0)" x2="0" y2="5" stroke="#888" stroke-width="1" opacity="1"/><line transform="translate(232,0)" x2="0" y2="5" stroke="#888" stroke-width="1" opacity="1"/><line transform="translate(279,0)" x2="0" y2="5" stroke="#888" stroke-width="1" opacity="1"/><line transform="translate(325,0)" x2="0" y2="5" stroke="#888" stroke-width="1" opacity="1"/><line transform="translate(372,0)" x2="0" y2="5" stroke="#888" stroke-width="1" opacity="1"/><line transform="translate(418,0)" x2="0" y2="5" stroke="#888" stroke-width="1" opacity="1"/><line transform="translate(465,0)" x2="0" y2="5" stroke="#888" stroke-width="1" opacity="1"/><line transform="translate(511,0)" x2="0" y2="5" stroke="#888" stroke-width="1" opacity="1"/><line transform="translate(558,0)" x2="0" y2="5" stroke="#888" stroke-width="1" opacity="1"/></g><g class="mark-text role-axis-label" pointer-events="none"><text text-anchor="start" transform="translate(0,15)" font-family="Helvetica" font-size="10px" fill="#000" opacity="1">2007</text><text text-anchor="middle" transform="translate(46.427814288742844,15)" font-family="Helvetica" font-size="10px" fill="#000" opacity="0">2008</text><text text-anchor="middle" transform="translate(92.98282806868772,15)" font-family="Helvetica" font-size="10px" fill="#000" opacity="1">2009</text><text text-anchor="middle" transform="translate(139.41064235743056,15)" font-family="Helvetica" font-size="10px" fill="#000" opacity="0">2010</text><text text-anchor="middle" transform="translate(185.8384566461734,15)" font-family="Helvetica" font-size="10px" fill="#000" opacity="1">2011</text><text text-anchor="middle" transform="translate(232.26627093491626,15)" font-family="Helvetica" font-size="10px" fill="#000" opacity="0">2012</text><text text-anchor="middle" transform="translate(278.8212847148611,15)" font-family="Helvetica" font-size="10px" fill="#000" opacity="1">2013</text><text text-anchor="middle" transform="translate(325.249099003604,15)" font-family="Helvetica" font-size="10px" fill="#000" opacity="0">2014</text><text text-anchor="middle" transform="translate(371.6769132923468,15)" font-family="Helvetica" font-size="10px" fill="#000" opacity="1">2015</text><text text-anchor="middle" transform="translate(418.10472758108966,15)" font-family="Helvetica" font-size="10px" fill="#000" opacity="0">2016</text><text text-anchor="middle" transform="translate(464.65974136103455,15)" font-family="Helvetica" font-size="10px" fill="#000" opacity="1">2017</text><text text-anchor="middle" transform="translate(511.08755564977736,15)" font-family="Helvetica" font-size="10px" fill="#000" opacity="0">2018</text><text text-anchor="middle" transform="translate(557.5153699385203,15)" font-family="Helvetica" font-size="10px" fill="#000" opacity="1">2019</text></g><g class="mark-rule role-axis-domain" pointer-events="none"><line transform="translate(0,0)" x2="600" y2="0" stroke="#888" stroke-width="1" opacity="1"/></g></g><path class="foreground" aria-hidden="true" d="" pointer-events="none" display="none"/></g></g><g class="mark-group role-axis" role="graphics-symbol" aria-roledescription="axis" aria-label="Y-axis titled 'Recipiency rate' for a linear scale with values from 0% to 100%"><g transform="translate(0.5,0.5)"><path class="background" aria-hidden="true" d="M0,0h0v0h0Z" pointer-events="none"/><g><g class="mark-rule role-axis-tick" pointer-events="none"><line transform="translate(0,200)" x2="-5" y2="0" stroke="#33333320" stroke-width="1" opacity="1"/><line transform="translate(0,160)" x2="-5" y2="0" stroke="#33333320" stroke-width="1" opacity="1"/><line transform="translate(0,120)" x2="-5" y2="0" stroke="#33333320" stroke-width="1" opacity="1"/><line transform="translate(0,80)" x2="-5" y2="0" stroke="#33333320" stroke-width="1" opacity="1"/><line transform="translate(0,40)" x2="-5" y2="0" stroke="#33333320" stroke-width="1" opacity="1"/><line transform="translate(0,0)" x2="-5" y2="0" stroke="#33333320" stroke-width="1" opacity="1"/></g><g class="mark-text role-axis-label" pointer-events="none"><text text-anchor="end" transform="translate(-7,203)" font-family="Helvetica" font-size="10px" fill="#000" opacity="1">0%</text><text text-anchor="end" transform="translate(-7,163)" font-family="Helvetica" font-size="10px" fill="#000" opacity="1">20%</text><text text-anchor="end" transform="translate(-7,123)" font-family="Helvetica" font-size="10px" fill="#000" opacity="1">40%</text><text text-anchor="end" transform="translate(-7,83)" font-family="Helvetica" font-size="10px" fill="#000" opacity="1">60%</text><text text-anchor="end" transform="translate(-7,42.99999999999999)" font-family="Helvetica" font-size="10px" fill="#000" opacity="1">80%</text><text text-anchor="end" transform="translate(-7,3)" font-family="Helvetica" font-size="10px" fill="#000" opacity="1">100%</text></g><g class="mark-text role-axis-title" pointer-events="none"><text text-anchor="middle" transform="translate(-44.369140625,100) rotate(-90) translate(0,-2)" font-family="Helvetica" font-size="11px" font-weight="bold" fill="#000" opacity="1">Recipiency rate</text></g></g><path class="foreground" aria-hidden="true" d="" pointer-events="none" display="none"/></g></g><g class="mark-line role-mark marks" role="graphics-symbol" aria-roledescription="line mark container"><path d="M0,127.937L3.943,127.519L7.505,127.278L11.443,126.305L15.259,126.233L19.202,126.173L23.018,125.661L26.961,125.594L30.904,125.482L34.72,125.761L38.663,125.911L42.485,125.641L46.428,125.896L50.371,126L54.06,125.443L57.998,125.352L61.814,125.964L65.757,125.489L69.573,126.091L73.516,126.593L77.459,126.118L81.275,126.628L85.218,126.44L89.04,125.114L92.983,124.856L96.926,123.717L100.488,121.646L104.425,120.415L108.241,119.053L112.185,117.787L116.001,117.293L119.944,116.406L123.887,116.721L127.703,117.433L131.646,117.479L135.467,118.907L139.411,120.099L143.354,121.728L146.915,124.058L150.853,126.425L154.669,128.337L158.612,130.457L162.428,132.363L166.372,133.885L170.315,135.347L174.131,136.238L178.074,137.661L181.895,138.827L185.838,139.313L189.782,140.04L193.343,141.067L197.281,141.772L201.097,142.158L205.04,143.179L208.856,143.64L212.799,144.395L216.743,145.011L220.559,145.186L224.502,145.489L228.323,145.875L232.266,145.872L236.209,146.173L239.898,146.628L243.836,146.167L247.652,146.705L251.595,146.97L255.411,146.659L259.354,147.088L263.298,146.793L267.114,146.778L271.057,146.936L274.878,146.497L278.821,147.344L282.764,147.456L286.326,147.216L290.264,147.433L294.08,147.521L298.023,147.344L301.839,147.445L305.782,147.456L309.725,147.377L313.541,147.656L317.485,147.859L321.306,147.483L325.249,147.145L329.192,146.841L332.754,146.428L336.692,146.349L340.508,146.17L344.451,145.481L348.267,145.732L352.21,145.489L356.153,145.398L359.969,145.267L363.912,144.992L367.734,145.32L371.677,145.768L375.62,145.97L379.182,145.804L383.12,146.181L386.936,146.129L390.879,146.303L394.695,146.149L398.638,145.445L402.581,145.366L406.397,145.272L410.34,144.723L414.162,144.995L418.105,144.321L422.048,143.931L425.737,144.649L429.675,144.774L433.491,143.869L437.434,144.058L441.25,143.801L445.193,144.101L449.136,144.51L452.952,144.224L456.895,144.659L460.717,145.054L464.66,144.972L468.603,145.487L472.165,145.468L476.102,145.01L479.918,145.432L483.862,145.36L487.678,145L491.621,145.225L495.564,144.87L499.38,144.341L503.323,144.187L507.144,143.582L511.088,143.592L515.031,143.447L518.592,143.561L522.53,143.174L526.346,143.232L530.289,143.499L534.105,143.428L538.049,143.347L541.992,143.057L545.808,143.496L549.751,143.639L553.572,143.711L557.515,144.528L561.459,144.595L565.02,144.283L568.958,144.611L572.774,144.697L576.717,144.114L580.533,144.461L584.476,144.546L588.42,144.106L592.236,144.092L596.179,144.027L600,143.312" stroke="#4c78a8" stroke-width="3"/></g><g class="mark-group role-title"><g transform="translate(-55.369140625,-52)"><path class="background" aria-hidden="true" d="M0,0h0v0h0Z" pointer-events="none"/><g><g class="mark-text role-title-text" role="graphics-symbol" aria-roledescription="title" aria-label="Title text 'Since 2007, about 30 percent of unemployed Americans receive unemployment insurance'" pointer-events="none"><text text-anchor="start" transform="translate(0,10)" font-family="sans-serif" font-size="13px" font-weight="bold" fill="#000" opacity="1">Since 2007, about 30 percent of unemployed Americans receive unemployment insurance</text></g><g class="mark-text role-title-subtitle" role="graphics-symbol" aria-roledescription="subtitle" aria-label="Subtitle text 'Unemployment insurance recipiency, annual moving average: 2007-2019'" pointer-events="none"><text text-anchor="start" transform="translate(0,25)" font-family="sans-serif" font-size="12px" fill="#000" opacity="1">Unemployment insurance recipiency, annual moving average: 2007-2019</text></g></g><path class="foreground" aria-hidden="true" d="" pointer-events="none" display="none"/></g></g></g><path class="foreground" aria-hidden="true" d="" display="none"/></g></g></g></svg>