<svg xmlns="http://www.w3.org/2000/svg" xmlns:xlink="http://www.w3.org/1999/xlink" version="1.1" class="marks" width="844" height="296" viewBox="0 0 844 296"><rect width="844" height="296" fill="white"/><g fill="none" stroke-miterlimit="10" transform="translate(32,59)"><g class="mark-group role-frame root" role="graphics-object" aria-roledescription="group mark container"><g transform="translate(0,0)"><path class="background" aria-hidden="true" d="M0.5,0.5h800v200h-800Z"/><g><g class="mark-group role-axis" role="graphics-symbol" aria-roledescription="axis" aria-label="X-axis titled 'Week of Unemployment' for a linear scale with values from 0 to 26"><g transform="translate(0.5,200.5)"><path class="background" aria-hidden="true" d="M0,0h0v0h0Z" pointer-events="none"/><g><g class="mark-rule role-axis-tick" pointer-events="none"><line transform="translate(31,0)" x2="0" y2="5" stroke="#888" stroke-width="1" opacity="1"/><line transform="translate(92,0)" x2="0" y2="5" stroke="#888" stroke-width="1" opacity="1"/><line transform="translate(154,0)" x2="0" y2="5" stroke="#888" stroke-width="1" opacity="1"/><line transform="translate(215,0)" x2="0" y2="5" stroke="#888" stroke-width="1" opacity="1"/><line transform="translate(277,0)" x2="0" y2="5" stroke="#888" stroke-width="1" opacity="1"/><line transform="translate(338,0)" x2="0" y2="5" stroke="#888" stroke-width="1" opacity="1"/><line transform="translate(400,0)" x2="0" y2="5" stroke="#888" stroke-width="1" opacity="1"/><line transform="translate(462,0)" x2="0" y2="5" stroke="#888" stroke-width="1" opacity="1"/><line transform="translate(523,0)" x2="0" y2="5" stroke="#888" stroke-width="1" opacity="1"/><line transform="translate(585,0)" x2="0" y2="5" stroke="#888" stroke-width="1" opacity="1"/><line transform="translate(646,0)" x2="0" y2="5" stroke="#888" stroke-width="1" opacity="1"/><line transform="translate(708,0)" x2="0" y2="5" stroke="#888" stroke-width="1" opacity="1"/><line transform="translate(769,0)" x2="0" y2="5" stroke="#888" stroke-width="1" opacity="1"/></g><g class="mark-text role-axis-label" pointer-events="none"><text text-anchor="middle" transform="translate(30.76923076923077,15)" font-family="Helvetica" font-size="10px" fill="#000" opacity="1">1</text><text text-anchor="middle" transform="translate(92.3076923076923,15)" font-family="Helvetica" font-size="10px" fill="#000" opacity="1">3</text><text text-anchor="middle" transform="translate(153.84615384615387,15)" font-family="Helvetica" font-size="10px" fill="#000" opacity="1">5</text><text text-anchor="middle" transform="translate(215.3846153846154,15)" font-family="Helvetica" font-size="10px" fill="#000" opacity="1">7</text><text text-anchor="middle" transform="translate(276.9230769230769,15)" font-family="Helvetica" font-size="10px" fill="#000" opacity="1">9</text><text text-anchor="middle" transform="translate(338.46153846153845,15)" font-family="Helvetica" font-size="10px" fill="#000" opacity="1">11</text><text text-anchor="middle" transform="translate(400,15)" font-family="Helvetica" font-size="10px" fill="#000" opacity="1">13</text><text text-anchor="middle" transform="translate(461.5384615384615,15)" font-family="Helvetica" font-size="10px" fill="#000" opacity="1">15</text><text text-anchor="middle" transform="translate(523.0769230769231,15)" font-family="Helvetica" font-size="10px" fill="#000" opacity="1">17</text><text text-anchor="middle" transform="translate(584.6153846153845,15)" font-family="Helvetica" font-size="10px" fill="#000" opacity="1">19</text><text text-anchor="middle" transform="translate(646.1538461538462,15)" font-family="Helvetica" font-size="10px" fill="#000" opacity="1">21</text><text text-anchor="middle" transform="translate(707.6923076923076,15)" font-family="Helvetica" font-size="10px" fill="#000" opacity="1">23</text><text text-anchor="middle" transform="translate(769.2307692307693,15)" font-family="Helvetica" font-size="10px" fill="#000" opacity="1">25</text></g><g class="mark-text role-axis-title" pointer-events="none"><text text-anchor="middle" transform="translate(400,30)" font-family="Helvetica" font-size="11px" font-weight="bold" fill="#000" opacity="1">Week of Unemployment</text></g></g><path class="foreground" aria-hidden="true" d="" pointer-events="none" display="none"/></g></g><g class="mark-group role-axis" role="graphics-symbol" aria-roledescription="axis" aria-label="Y-axis for a linear scale with values from 0 to 4"><g transform="translate(0.5,0.5)"><path class="background" aria-hidden="true" d="M0,0h0v0h0Z" pointer-events="none"/><g><g class="mark-text role-axis-label" pointer-events="none"><text text-anchor="end" transform="translate(-10,153)" font-family="Helvetica" font-size="10px" fill="#000" opacity="1">1</text><text text-anchor="end" transform="translate(-10,103)" font-family="Helvetica" font-size="10px" fill="#000" opacity="1">2</text><text text-anchor="end" transform="translate(-10,53)" font-family="Helvetica" font-size="10px" fill="#000" opacity="1">3</text><text text-anchor="end" transform="translate(-10,3)" font-family="Helvetica" font-size="10px" fill="#000" opacity="1">4</text></g></g><path class="foreground" aria-hidden="true" d="" pointer-events="none" display="none"/></g></g><g class="mark-symbol role-mark layer_0_marks" role="graphics-symbol" aria-roledescription="symbol mark container"><path transform="translate(30.76923076923077,150)" d="M5,0A5,5,0,1,1,-5,0A5,5,0,1,1,5,0" fill="#33333340" stroke-width="2" opacity="0.7"/><path transform="translate(61.53846153846154,150)" d="M5,0A5,5,0,1,1,-5,0A5,5,0,1,1,5,0" fill="#33333340" stroke-width="2" opacity="0.7"/><path transform="translate(92.3076923076923,150)" d="M5,0A5,5,0,1,1,-5,0A5,5,0,1,1,5,0" fill="#33333340" stroke-width="2" opacity="0.7"/><path transform="translate(123.07692307692308,150)" d="M5,0A5,5,0,1,1,-5,0A5,5,0,1,1,5,0" fill="#33333340" stroke-width="2" opacity="0.7"/><path transform="translate(153.84615384615387,150)" d="M5,0A5,5,0,1,1,-5,0A5,5,0,1,1,5,0" fill="#33333340" stroke-width="2" opacity="0.7"/><path transform="translate(184.6153846153846,150)" d="M5,0A5,5,0,1,1,-5,0A5,5,0,1,1,5,0" fill="#33333340" stroke-width="2" opacity="0.7"/><path transform="translate(215.3846153846154,150)" d="M5,0A5,5,0,1,1,-5,0A5,5,0,1,1,5,0" fill="#33333340" stroke-width="2" opacity="0.7"/><path transform="translate(246.15384615384616,150)" d="M5,0A5,5,0,1,1,-5,0A5,5,0,1,1,5,0" fill="#33333340" stroke-width="2" opacity="0.7"/><path transform="translate(276.9230769230769,150)" d="M5,0A5,5,0,1,1,-5,0A5,5,0,1,1,5,0" fill="#33333340" stroke-width="2" opacity="0.7"/><path transform="translate(307.69230769230774,150)" d="M5,0A5,5,0,1,1,-5,0A5,5,0,1,1,5,0" fill="#33333340" stroke-width="2" opacity="0.7"/><path transform="translate(338.46153846153845,150)" d="M5,0A5,5,0,1,1,-5,0A5,5,0,1,1,5,0" fill="#33333340" stroke-width="2" opacity="0.7"/><path transform="translate(369.2307692307692,150)" d="M5,0A5,5,0,1,1,-5,0A5,5,0,1,1,5,0" fill="#33333340" stroke-width="2" opacity="0.7"/><path transform="translate(400,150)" d="M5,0A5,5,0,1,1,-5,0A5,5,0,1,1,5,0" fill="#33333340" stroke-width="2" opacity="0.7"/><path transform="translate(430.7692307692308,150)" d="M5,0A5,5,0,1,1,-5,0A5,5,0,1,1,5,0" fill="#33333340" stroke-width="2" opacity="0.7"/><path transform="translate(461.5384615384615,150)" d="M5,0A5,5,0,1,1,-5,0A5,5,0,1,1,5,0" fill="#33333340" stroke-width="2" opacity="0.7"/><path transform="translate(492.3076923076923,150)" d="M5,0A5,5,0,1,1,-5,0A5,5,0,1,1,5,0" fill="#33333340" stroke-width="2" opacity="0.7"/><path transform="translate(523.0769230769231,150)" d="M5,0A5,5,0,1,1,-5,0A5,5,0,1,1,5,0" fill="#33333340" stroke-width="2" opacity="0.7"/><path transform="translate(553.8461538461538,150)" d="M5,0A5,5,0,1,1,-5,0A5,5,0,1,1,5,0" fill="#33333340" stroke-width="2" opacity="0.7"/><path transform="translate(584.6153846153845,150)" d="M5,0A5,5,0,1,1,-5,0A5,5,0,1,1,5,0" fill="#33333340" stroke-width="2" opacity="0.7"/><path transform="translate(615.3846153846155,150)" d="M5,0A5,5,0,1,1,-5,0A5,5,0,1,1,5,0" fill="#33333340" stroke-width="2" opacity="0.7"/><path transform="translate(646.1538461538462,150)" d="M5,0A5,5,0,1,1,-5,0A5,5,0,1,1,5,0" fill="#33333340" stroke-width="2" opacity="0.7"/><path transform="translate(676.9230769230769,150)" d="M5,0A5,5,0,1,1,-5,0A5,5,0,1,1,5,0" fill="#33333340" stroke-width="2" opacity="0.7"/><path transform="translate(707.6923076923076,150)" d="M5,0A5,5,0,1,1,-5,0A5,5,0,1,1,5,0" fill="#33333340" stroke-width="2" opacity="0.7"/><path transform="translate(738.4615384615385,150)" d="M5,0A5,5,0,1,1,-5,0A5,5,0,1,1,5,0" fill="#33333340" stroke-width="2" opacity="0.7"/><path transform="translate(769.2307692307693,150)" d="M5,0A5,5,0,1,1,-5,0A5,5,0,1,1,5,0" fill="#33333340" stroke-width="2" opacity="0.7"/><path transform="translate(800,150)" d="M5,0A5,5,0,1,1,-5,0A5,5,0,1,1,5,0" fill="#33333340" stroke-width="2" opacity="0.7"/><path transform="translate(30.76923076923077,100)" d="M5,0A5,5,0,1,1,-5,0A5,5,0,1,1,5,0" fill="#33333340" stroke-width="2" opacity="0.7"/><path transform="translate(61.53846153846154,100)" d="M5,0A5,5,0,1,1,-5,0A5,5,0,1,1,5,0" fill="#33333340" stroke-width="2" opacity="0.7"/><path transform="translate(92.3076923076923,100)" d="M5,0A5,5,0,1,1,-5,0A5,5,0,1,1,5,0" fill="#33333340" stroke-width="2" opacity="0.7"/><path transform="translate(123.07692307692308,100)" d="M5,0A5,5,0,1,1,-5,0A5,5,0,1,1,5,0" fill="#33333340" stroke-width="2" opacity="0.7"/><path transform="translate(153.84615384615387,100)" d="M5,0A5,5,0,1,1,-5,0A5,5,0,1,1,5,0" fill="#33333340" stroke-width="2" opacity="0.7"/><path transform="translate(184.6153846153846,100)" d="M5,0A5,5,0,1,1,-5,0A5,5,0,1,1,5,0" fill="#33333340" stroke-width="2" opacity="0.7"/><path transform="translate(215.3846153846154,100)" d="M5,0A5,5,0,1,1,-5,0A5,5,0,1,1,5,0" fill="#33333340" stroke-width="2" opacity="0.7"/><path transform="translate(246.15384615384616,100)" d="M5,0A5,5,0,1,1,-5,0A5,5,0,1,1,5,0" fill="#33333340" stroke-width="2" opacity="0.7"/><path transform="translate(276.9230769230769,100)" d="M5,0A5,5,0,1,1,-5,0A5,5,0,1,1,5,0" fill="#33333340" stroke-width="2" opacity="0.7"/><path transform="translate(307.69230769230774,100)" d="M5,0A5,5,0,1,1,-5,0A5,5,0,1,1,5,0" fill="#33333340" stroke-width="2" opacity="0.7"/><path transform="translate(338.46153846153845,100)" d="M5,0A5,5,0,1,1,-5,0A5,5,0,1,1,5,0" fill="#33333340" stroke-width="2" opacity="0.7"/><path transform="translate(369.2307692307692,100)" d="M5,0A5,5,0,1,1,-5,0A5,5,0,1,1,5,0" fill="#33333340" stroke-width="2" opacity="0.7"/><path transform="translate(400,100)" d="M5,0A5,5,0,1,1,-5,0A5,5,0,1,1,5,0" fill="#33333340" stroke-width="2" opacity="0.7"/><path transform="translate(430.7692307692308,100)" d="M5,0A5,5,0,1,1,-5,0A5,5,0,1,1,5,0" fill="#33333340" stroke-width="2" opacity="0.7"/><path transform="translate(461.5384615384615,100)" d="M5,0A5,5,0,1,1,-5,0A5,5,0,1,1,5,0" fill="#33333340" stroke-width="2" opacity="0.7"/><path transform="translate(492.3076923076923,100)" d="M5,0A5,5,0,1,1,-5,0A5,5,0,1,1,5,0" fill="#33333340" stroke-width="2" opacity="0.7"/><path transform="translate(523.0769230769231,100)" d="M5,0A5,5,0,1,1,-5,0A5,5,0,1,1,5,0" fill="#33333340" stroke-width="2" opacity="0.7"/><path transform="translate(553.8461538461538,100)" d="M5,0A5,5,0,1,1,-5,0A5,5,0,1,1,5,0" fill="#33333340" stroke-width="2" opacity="0.7"/><path transform="translate(584.6153846153845,100)" d="M5,0A5,5,0,1,1,-5,0A5,5,0,1,1,5,0" fill="#33333340" stroke-width="2" opacity="0.7"/><path transform="translate(615.3846153846155,100)" d="M5,0A5,5,0,1,1,-5,0A5,5,0,1,1,5,0" fill="#33333340" stroke-width="2" opacity="0.7"/><path transform="translate(646.1538461538462,100)" d="M5,0A5,5,0,1,1,-5,0A5,5,0,1,1,5,0" fill="#33333340" stroke-width="2" opacity="0.7"/><path transform="translate(676.9230769230769,100)" d="M5,0A5,5,0,1,1,-5,0A5,5,0,1,1,5,0" fill="#33333340" stroke-width="2" opacity="0.7"/><path transform="translate(707.6923076923076,100)" d="M5,0A5,5,0,1,1,-5,0A5,5,0,1,1,5,0" fill="#33333340" stroke-width="2" opacity="0.7"/><path transform="translate(738.4615384615385,100)" d="M5,0A5,5,0,1,1,-5,0A5,5,0,1,1,5,0" fill="#33333340" stroke-width="2" opacity="0.7"/><path transform="translate(769.2307692307693,100)" d="M5,0A5,5,0,1,1,-5,0A5,5,0,1,1,5,0" fill="#33333340" stroke-width="2" opacity="0.7"/><path transform="translate(800,100)" d="M5,0A5,5,0,1,1,-5,0A5,5,0,1,1,5,0" fill="#33333340" stroke-width="2" opacity="0.7"/><path transform="translate(30.76923076923077,50)" d="M5,0A5,5,0,1,1,-5,0A5,5,0,1,1,5,0" fill="#33333340" stroke-width="2" opacity="0.7"/><path transform="translate(61.53846153846154,50)" d="M5,0A5,5,0,1,1,-5,0A5,5,0,1,1,5,0" fill="#33333340" stroke-width="2" opacity="0.7"/><path transform="translate(92.3076923076923,50)" d="M5,0A5,5,0,1,1,-5,0A5,5,0,1,1,5,0" fill="#33333340" stroke-width="2" opacity="0.7"/><path transform="translate(123.07692307692308,50)" d="M5,0A5,5,0,1,1,-5,0A5,5,0,1,1,5,0" fill="#33333340" stroke-width="2" opacity="0.7"/><path transform="translate(153.84615384615387,50)" d="M5,0A5,5,0,1,1,-5,0A5,5,0,1,1,5,0" fill="#33333340" stroke-width="2" opacity="0.7"/><path transform="translate(184.6153846153846,50)" d="M5,0A5,5,0,1,1,-5,0A5,5,0,1,1,5,0" fill="#33333340" stroke-width="2" opacity="0.7"/><path transform="translate(215.3846153846154,50)" d="M5,0A5,5,0,1,1,-5,0A5,5,0,1,1,5,0" fill="#33333340" stroke-width="2" opacity="0.7"/><path transform="translate(246.15384615384616,50)" d="M5,0A5,5,0,1,1,-5,0A5,5,0,1,1,5,0" fill="#33333340" stroke-width="2" opacity="0.7"/><path transform="translate(276.9230769230769,50)" d="M5,0A5,5,0,1,1,-5,0A5,5,0,1,1,5,0" fill="#33333340" stroke-width="2" opacity="0.7"/><path transform="translate(307.69230769230774,50)" d="M5,0A5,5,0,1,1,-5,0A5,5,0,1,1,5,0" fill="#33333340" stroke-width="2" opacity="0.7"/><path transform="translate(338.46153846153845,50)" d="M5,0A5,5,0,1,1,-5,0A5,5,0,1,1,5,0" fill="#33333340" stroke-width="2" opacity="0.7"/><path transform="translate(369.2307692307692,50)" d="M5,0A5,5,0,1,1,-5,0A5,5,0,1,1,5,0" fill="#33333340" stroke-width="2" opacity="0.7"/><path transform="translate(30.76923076923077,0)" d="M5,0A5,5,0,1,1,-5,0A5,5,0,1,1,5,0" fill="#33333340" stroke-width="2" opacity="0.7"/><path transform="translate(61.53846153846154,0)" d="M5,0A5,5,0,1,1,-5,0A5,5,0,1,1,5,0" fill="#33333340" stroke-width="2" opacity="0.7"/><path transform="translate(92.3076923076923,0)" d="M5,0A5,5,0,1,1,-5,0A5,5,0,1,1,5,0" fill="#33333340" stroke-width="2" opacity="0.7"/><path transform="translate(123.07692307692308,0)" d="M5,0A5,5,0,1,1,-5,0A5,5,0,1,1,5,0" fill="#33333340" stroke-width="2" opacity="0.7"/><path transform="translate(153.84615384615387,0)" d="M5,0A5,5,0,1,1,-5,0A5,5,0,1,1,5,0" fill="#33333340" stroke-width="2" opacity="0.7"/><path transform="translate(184.6153846153846,0)" d="M5,0A5,5,0,1,1,-5,0A5,5,0,1,1,5,0" fill="#33333340" stroke-width="2" opacity="0.7"/><path transform="translate(215.3846153846154,0)" d="M5,0A5,5,0,1,1,-5,0A5,5,0,1,1,5,0" fill="#33333340" stroke-width="2" opacity="0.7"/><path transform="translate(246.15384615384616,0)" d="M5,0A5,5,0,1,1,-5,0A5,5,0,1,1,5,0" fill="#33333340" stroke-width="2" opacity="0.7"/><path transform="translate(276.9230769230769,0)" d="M5,0A5,5,0,1,1,-5,0A5,5,0,1,1,5,0" fill="#33333340" stroke-width="2" opacity="0.7"/><path transform="translate(307.69230769230774,0)" d="M5,0A5,5,0,1,1,-5,0A5,5,0,1,1,5,0" fill="#33333340" stroke-width="2" opacity="0.7"/><path transform="translate(338.46153846153845,0)" d="M5,0A5,5,0,1,1,-5,0A5,5,0,1,1,5,0" fill="#33333340" stroke-width="2" opacity="0.7"/><path transform="translate(369.2307692307692,0)" d="M5,0A5,5,0,1,1,-5,0A5,5,0,1,1,5,0" fill="#33333340" stroke-width="2" opacity="0.7"/><path transform="translate(400,0)" d="M5,0A5,5,0,1,1,-5,0A5,5,0,1,1,5,0" fill="#33333340" stroke-width="2" opacity="0.7"/><path transform="translate(430.7692307692308,0)" d="M5,0A5,5,0,1,1,-5,0A5,5,0,1,1,5,0" fill="#33333340" stroke-width="2" opacity="0.7"/><path transform="translate(461.5384615384615,0)" d="M5,0A5,5,0,1,1,-5,0A5,5,0,1,1,5,0" fill="#33333340" stroke-width="2" opacity="0.7"/><path transform="translate(492.3076923076923,0)" d="M5,0A5,5,0,1,1,-5,0A5,5,0,1,1,5,0" fill="#33333340" stroke-width="2" opacity="0.7"/><path transform="translate(523.0769230769231,0)" d="M5,0A5,5,0,1,1,-5,0A5,5,0,1,1,5,0" fill="#33333340" stroke-width="2" opacity="0.7"/><path transform="translate(553.8461538461538,0)" d="M5,0A5,5,0,1,1,-5,0A5,5,0,1,1,5,0" fill="#33333340" stroke-width="2" opacity="0.7"/><path transform="translate(584.6153846153845,0)" d="M5,0A5,5,0,1,1,-5,0A5,5,0,1,1,5,0" fill="#33333340" stroke-width="2" opacity="0.7"/><path transform="translate(615.3846153846155,0)" d="M5,0A5,5,0,1,1,-5,0A5,5,0,1,1,5,0" fill="#33333340" stroke-width="2" opacity="0.7"/><path transform="translate(646.1538461538462,0)" d="M5,0A5,5,0,1,1,-5,0A5,5,0,1,1,5,0" fill="#33333340" stroke-width="2" opacity="0.7"/><path transform="translate(676.9230769230769,0)" d="M5,0A5,5,0,1,1,-5,0A5,5,0,1,1,5,0" fill="#33333340" stroke-width="2" opacity="0.7"/><path transform="translate(707.6923076923076,0)" d="M5,0A5,5,0,1,1,-5,0A5,5,0,1,1,5,0" fill="#33333340" stroke-width="2" opacity="0.7"/><path transform="translate(738.4615384615385,0)" d="M5,0A5,5,0,1,1,-5,0A5,5,0,1,1,5,0" fill="#33333340" stroke-width="2" opacity="0.7"/><path transform="translate(769.2307692307693,0)" d="M5,0A5,5,0,1,1,-5,0A5,5,0,1,1,5,0" fill="#33333340" stroke-width="2" opacity="0.7"/><path transform="translate(800,0)" d="M5,0A5,5,0,1,1,-5,0A5,5,0,1,1,5,0" fill="#33333340" stroke-width="2" opacity="0.7"/></g><g class="mark-symbol role-mark layer_1_marks" role="graphics-symbol" aria-roledescription="symbol mark container"><path transform="translate(30.76923076923077,100)" d="M5,0A5,5,0,1,1,-5,0A5,5,0,1,1,5,0" stroke="#4c78a8" stroke-width="2" opacity="0.7"/><path transform="translate(61.53846153846154,100)" d="M5,0A5,5,0,1,1,-5,0A5,5,0,1,1,5,0" stroke="#4c78a8" stroke-width="2" opacity="0.7"/><path transform="translate(92.3076923076923,100)" d="M5,0A5,5,0,1,1,-5,0A5,5,0,1,1,5,0" stroke="#4c78a8" stroke-width="2" opacity="0.7"/><path transform="translate(123.07692307692308,100)" d="M5,0A5,5,0,1,1,-5,0A5,5,0,1,1,5,0" stroke="#4c78a8" stroke-width="2" opacity="0.7"/><path transform="translate(153.84615384615387,100)" d="M5,0A5,5,0,1,1,-5,0A5,5,0,1,1,5,0" stroke="#4c78a8" stroke-width="2" opacity="0.7"/><path transform="translate(184.6153846153846,100)" d="M5,0A5,5,0,1,1,-5,0A5,5,0,1,1,5,0" stroke="#4c78a8" stroke-width="2" opacity="0.7"/><path transform="translate(215.3846153846154,100)" d="M5,0A5,5,0,1,1,-5,0A5,5,0,1,1,5,0" stroke="#4c78a8" stroke-width="2" opacity="0.7"/><path transform="translate(246.15384615384616,100)" d="M5,0A5,5,0,1,1,-5,0A5,5,0,1,1,5,0" stroke="#4c78a8" stroke-width="2" opacity="0.7"/><path transform="translate(276.9230769230769,100)" d="M5,0A5,5,0,1,1,-5,0A5,5,0,1,1,5,0" stroke="#4c78a8" stroke-width="2" opacity="0.7"/><path transform="translate(307.69230769230774,100)" d="M5,0A5,5,0,1,1,-5,0A5,5,0,1,1,5,0" stroke="#4c78a8" stroke-width="2" opacity="0.7"/><path transform="translate(338.46153846153845,100)" d="M5,0A5,5,0,1,1,-5,0A5,5,0,1,1,5,0" stroke="#4c78a8" stroke-width="2" opacity="0.7"/><path transform="translate(369.2307692307692,100)" d="M5,0A5,5,0,1,1,-5,0A5,5,0,1,1,5,0" stroke="#4c78a8" stroke-width="2" opacity="0.7"/><path transform="translate(400,100)" d="M5,0A5,5,0,1,1,-5,0A5,5,0,1,1,5,0" stroke="#4c78a8" stroke-width="2" opacity="0.7"/><path transform="translate(430.7692307692308,100)" d="M5,0A5,5,0,1,1,-5,0A5,5,0,1,1,5,0" stroke="#4c78a8" stroke-width="2" opacity="0.7"/><path transform="translate(461.5384615384615,100)" d="M5,0A5,5,0,1,1,-5,0A5,5,0,1,1,5,0" stroke="#4c78a8" stroke-width="2" opacity="0.7"/><path transform="translate(492.3076923076923,100)" d="M5,0A5,5,0,1,1,-5,0A5,5,0,1,1,5,0" stroke="#4c78a8" stroke-width="2" opacity="0.7"/><path transform="translate(523.0769230769231,100)" d="M5,0A5,5,0,1,1,-5,0A5,5,0,1,1,5,0" stroke="#4c78a8" stroke-width="2" opacity="0.7"/><path transform="translate(553.8461538461538,100)" d="M5,0A5,5,0,1,1,-5,0A5,5,0,1,1,5,0" stroke="#4c78a8" stroke-width="2" opacity="0.7"/><path transform="translate(584.6153846153845,100)" d="M5,0A5,5,0,1,1,-5,0A5,5,0,1,1,5,0" stroke="#4c78a8" stroke-width="2" opacity="0.7"/><path transform="translate(615.3846153846155,100)" d="M5,0A5,5,0,1,1,-5,0A5,5,0,1,1,5,0" stroke="#4c78a8" stroke-width="2" opacity="0.7"/><path transform="translate(646.1538461538462,100)" d="M5,0A5,5,0,1,1,-5,0A5,5,0,1,1,5,0" stroke="#4c78a8" stroke-width="2" opacity="0.7"/><path transform="translate(676.9230769230769,100)" d="M5,0A5,5,0,1,1,-5,0A5,5,0,1,1,5,0" stroke="#4c78a8" stroke-width="2" opacity="0.7"/><path transform="translate(707.6923076923076,100)" d="M5,0A5,5,0,1,1,-5,0A5,5,0,1,1,5,0" stroke="#4c78a8" stroke-width="2" opacity="0.7"/><path transform="translate(738.4615384615385,100)" d="M5,0A5,5,0,1,1,-5,0A5,5,0,1,1,5,0" stroke="#4c78a8" stroke-width="2" opacity="0.7"/><path transform="translate(769.2307692307693,100)" d="M5,0A5,5,0,1,1,-5,0A5,5,0,1,1,5,0" stroke="#4c78a8" stroke-width="2" opacity="0.7"/><path transform="translate(800,100)" d="M5,0A5,5,0,1,1,-5,0A5,5,0,1,1,5,0" stroke="#4c78a8" stroke-width="2" opacity="0.7"/><path transform="translate(30.76923076923077,50)" d="M5,0A5,5,0,1,1,-5,0A5,5,0,1,1,5,0" stroke="#4c78a8" stroke-width="2" opacity="0.7"/><path transform="translate(61.53846153846154,50)" d="M5,0A5,5,0,1,1,-5,0A5,5,0,1,1,5,0" stroke="#4c78a8" stroke-width="2" opacity="0.7"/><path transform="translate(92.3076923076923,50)" d="M5,0A5,5,0,1,1,-5,0A5,5,0,1,1,5,0" stroke="#4c78a8" stroke-width="2" opacity="0.7"/><path transform="translate(123.07692307692308,50)" d="M5,0A5,5,0,1,1,-5,0A5,5,0,1,1,5,0" stroke="#4c78a8" stroke-width="2" opacity="0.7"/><path transform="translate(153.84615384615387,50)" d="M5,0A5,5,0,1,1,-5,0A5,5,0,1,1,5,0" stroke="#4c78a8" stroke-width="2" opacity="0.7"/><path transform="translate(184.6153846153846,50)" d="M5,0A5,5,0,1,1,-5,0A5,5,0,1,1,5,0" stroke="#4c78a8" stroke-width="2" opacity="0.7"/><path transform="translate(215.3846153846154,50)" d="M5,0A5,5,0,1,1,-5,0A5,5,0,1,1,5,0" stroke="#4c78a8" stroke-width="2" opacity="0.7"/><path transform="translate(246.15384615384616,50)" d="M5,0A5,5,0,1,1,-5,0A5,5,0,1,1,5,0" stroke="#4c78a8" stroke-width="2" opacity="0.7"/><path transform="translate(276.9230769230769,50)" d="M5,0A5,5,0,1,1,-5,0A5,5,0,1,1,5,0" stroke="#4c78a8" stroke-width="2" opacity="0.7"/><path transform="translate(307.69230769230774,50)" d="M5,0A5,5,0,1,1,-5,0A5,5,0,1,1,5,0" stroke="#4c78a8" stroke-width="2" opacity="0.7"/><path transform="translate(338.46153846153845,50)" d="M5,0A5,5,0,1,1,-5,0A5,5,0,1,1,5,0" stroke="#4c78a8" stroke-width="2" opacity="0.7"/><path transform="translate(369.2307692307692,50)" d="M5,0A5,5,0,1,1,-5,0A5,5,0,1,1,5,0" stroke="#4c78a8" stroke-width="2" opacity="0.7"/><path transform="translate(30.76923076923077,0)" d="M5,0A5,5,0,1,1,-5,0A5,5,0,1,1,5,0" stroke="#4c78a8" stroke-width="2" opacity="0.7"/><path transform="translate(61.53846153846154,0)" d="M5,0A5,5,0,1,1,-5,0A5,5,0,1,1,5,0" stroke="#4c78a8" stroke-width="2" opacity="0.7"/><path transform="translate(92.3076923076923,0)" d="M5,0A5,5,0,1,1,-5,0A5,5,0,1,1,5,0" stroke="#4c78a8" stroke-width="2" opacity="0.7"/><path transform="translate(123.07692307692308,0)" d="M5,0A5,5,0,1,1,-5,0A5,5,0,1,1,5,0" stroke="#4c78a8" stroke-width="2" opacity="0.7"/><path transform="translate(153.84615384615387,0)" d="M5,0A5,5,0,1,1,-5,0A5,5,0,1,1,5,0" stroke="#4c78a8" stroke-width="2" opacity="0.7"/><path transform="translate(184.6153846153846,0)" d="M5,0A5,5,0,1,1,-5,0A5,5,0,1,1,5,0" stroke="#4c78a8" stroke-width="2" opacity="0.7"/><path transform="translate(215.3846153846154,0)" d="M5,0A5,5,0,1,1,-5,0A5,5,0,1,1,5,0" stroke="#4c78a8" stroke-width="2" opacity="0.7"/><path transform="translate(246.15384615384616,0)" d="M5,0A5,5,0,1,1,-5,0A5,5,0,1,1,5,0" stroke="#4c78a8" stroke-width="2" opacity="0.7"/><path transform="translate(276.9230769230769,0)" d="M5,0A5,5,0,1,1,-5,0A5,5,0,1,1,5,0" stroke="#4c78a8" stroke-width="2" opacity="0.7"/><path transform="translate(307.69230769230774,0)" d="M5,0A5,5,0,1,1,-5,0A5,5,0,1,1,5,0" stroke="#4c78a8" stroke-width="2" opacity="0.7"/><path transform="translate(338.46153846153845,0)" d="M5,0A5,5,0,1,1,-5,0A5,5,0,1,1,5,0" stroke="#4c78a8" stroke-width="2" opacity="0.7"/><path transform="translate(369.2307692307692,0)" d="M5,0A5,5,0,1,1,-5,0A5,5,0,1,1,5,0" stroke="#4c78a8" stroke-width="2" opacity="0.7"/><path transform="translate(400,0)" d="M5,0A5,5,0,1,1,-5,0A5,5,0,1,1,5,0" stroke="#4c78a8" stroke-width="2" opacity="0.7"/><path transform="translate(430.7692307692308,0)" d="M5,0A5,5,0,1,1,-5,0A5,5,0,1,1,5,0" stroke="#4c78a8" stroke-width="2" opacity="0.7"/><path transform="translate(461.5384615384615,0)" d="M5,0A5,5,0,1,1,-5,0A5,5,0,1,1,5,0" stroke="#4c78a8" stroke-width="2" opacity="0.7"/><path transform="translate(492.3076923076923,0)" d="M5,0A5,5,0,1,1,-5,0A5,5,0,1,1,5,0" stroke="#4c78a8" stroke-width="2" opacity="0.7"/><path transform="translate(523.0769230769231,0)" d="M5,0A5,5,0,1,1,-5,0A5,5,0,1,1,5,0" stroke="#4c78a8" stroke-width="2" opacity="0.7"/><path transform="translate(553.8461538461538,0)" d="M5,0A5,5,0,1,1,-5,0A5,5,0,1,1,5,0" stroke="#4c78a8" stroke-width="2" opacity="0.7"/><path transform="translate(584.6153846153845,0)" d="M5,0A5,5,0,1,1,-5,0A5,5,0,1,1,5,0" stroke="#4c78a8" stroke-width="2" opacity="0.7"/><path transform="translate(615.3846153846155,0)" d="M5,0A5,5,0,1,1,-5,0A5,5,0,1,1,5,0" stroke="#4c78a8" stroke-width="2" opacity="0.7"/><path transform="translate(646.1538461538462,0)" d="M5,0A5,5,0,1,1,-5,0A5,5,0,1,1,5,0" stroke="#4c78a8" stroke-width="2" opacity="0.7"/><path transform="translate(676.9230769230769,0)" d="M5,0A5,5,0,1,1,-5,0A5,5,0,1,1,5,0" stroke="#4c78a8" stroke-width="2" opacity="0.7"/><path transform="translate(707.6923076923076,0)" d="M5,0A5,5,0,1,1,-5,0A5,5,0,1,1,5,0" stroke="#4c78a8" stroke-width="2" opacity="0.7"/><path transform="translate(738.4615384615385,0)" d="M5,0A5,5,0,1,1,-5,0A5,5,0,1,1,5,0" stroke="#4c78a8" stroke-width="2" opacity="0.7"/><path transform="translate(769.2307692307693,0)" d="M5,0A5,5,0,1,1,-5,0A5,5,0,1,1,5,0" stroke="#4c78a8" stroke-width="2" opacity="0.7"/><path transform="translate(800,0)" d="M5,0A5,5,0,1,1,-5,0A5,5,0,1,1,5,0" stroke="#4c78a8" stroke-width="2" opacity="0.7"/></g><g class="mark-symbol role-mark layer_2_marks" role="graphics-symbol" aria-roledescription="symbol mark container"><path transform="translate(61.53846153846154,100)" d="M5,0A5,5,0,1,1,-5,0A5,5,0,1,1,5,0" fill="#4c78a8" stroke-width="2" opacity="0.7"/><path transform="translate(92.3076923076923,100)" d="M5,0A5,5,0,1,1,-5,0A5,5,0,1,1,5,0" fill="#4c78a8" stroke-width="2" opacity="0.7"/><path transform="translate(184.6153846153846,100)" d="M5,0A5,5,0,1,1,-5,0A5,5,0,1,1,5,0" fill="#4c78a8" stroke-width="2" opacity="0.7"/><path transform="translate(215.3846153846154,100)" d="M5,0A5,5,0,1,1,-5,0A5,5,0,1,1,5,0" fill="#4c78a8" stroke-width="2" opacity="0.7"/><path transform="translate(246.15384615384616,100)" d="M5,0A5,5,0,1,1,-5,0A5,5,0,1,1,5,0" fill="#4c78a8" stroke-width="2" opacity="0.7"/><path transform="translate(276.9230769230769,100)" d="M5,0A5,5,0,1,1,-5,0A5,5,0,1,1,5,0" fill="#4c78a8" stroke-width="2" opacity="0.7"/><path transform="translate(307.69230769230774,100)" d="M5,0A5,5,0,1,1,-5,0A5,5,0,1,1,5,0" fill="#4c78a8" stroke-width="2" opacity="0.7"/><path transform="translate(338.46153846153845,100)" d="M5,0A5,5,0,1,1,-5,0A5,5,0,1,1,5,0" fill="#4c78a8" stroke-width="2" opacity="0.7"/><path transform="translate(369.2307692307692,100)" d="M5,0A5,5,0,1,1,-5,0A5,5,0,1,1,5,0" fill="#4c78a8" stroke-width="2" opacity="0.7"/><path transform="translate(430.7692307692308,100)" d="M5,0A5,5,0,1,1,-5,0A5,5,0,1,1,5,0" fill="#4c78a8" stroke-width="2" opacity="0.7"/><path transform="translate(461.5384615384615,100)" d="M5,0A5,5,0,1,1,-5,0A5,5,0,1,1,5,0" fill="#4c78a8" stroke-width="2" opacity="0.7"/><path transform="translate(523.0769230769231,100)" d="M5,0A5,5,0,1,1,-5,0A5,5,0,1,1,5,0" fill="#4c78a8" stroke-width="2" opacity="0.7"/><path transform="translate(553.8461538461538,100)" d="M5,0A5,5,0,1,1,-5,0A5,5,0,1,1,5,0" fill="#4c78a8" stroke-width="2" opacity="0.7"/><path transform="translate(584.6153846153845,100)" d="M5,0A5,5,0,1,1,-5,0A5,5,0,1,1,5,0" fill="#4c78a8" stroke-width="2" opacity="0.7"/><path transform="translate(615.3846153846155,100)" d="M5,0A5,5,0,1,1,-5,0A5,5,0,1,1,5,0" fill="#4c78a8" stroke-width="2" opacity="0.7"/><path transform="translate(646.1538461538462,100)" d="M5,0A5,5,0,1,1,-5,0A5,5,0,1,1,5,0" fill="#4c78a8" stroke-width="2" opacity="0.7"/><path transform="translate(676.9230769230769,100)" d="M5,0A5,5,0,1,1,-5,0A5,5,0,1,1,5,0" fill="#4c78a8" stroke-width="2" opacity="0.7"/><path transform="translate(707.6923076923076,100)" d="M5,0A5,5,0,1,1,-5,0A5,5,0,1,1,5,0" fill="#4c78a8" stroke-width="2" opacity="0.7"/><path transform="translate(738.4615384615385,100)" d="M5,0A5,5,0,1,1,-5,0A5,5,0,1,1,5,0" fill="#4c78a8" stroke-width="2" opacity="0.7"/><path transform="translate(769.2307692307693,100)" d="M5,0A5,5,0,1,1,-5,0A5,5,0,1,1,5,0" fill="#4c78a8" stroke-width="2" opacity="0.7"/><path transform="translate(800,100)" d="M5,0A5,5,0,1,1,-5,0A5,5,0,1,1,5,0" fill="#4c78a8" stroke-width="2" opacity="0.7"/><path transform="translate(30.76923076923077,50)" d="M5,0A5,5,0,1,1,-5,0A5,5,0,1,1,5,0" fill="#4c78a8" stroke-width="2" opacity="0.7"/><path transform="translate(61.53846153846154,50)" d="M5,0A5,5,0,1,1,-5,0A5,5,0,1,1,5,0" fill="#4c78a8" stroke-width="2" opacity="0.7"/><path transform="translate(92.3076923076923,50)" d="M5,0A5,5,0,1,1,-5,0A5,5,0,1,1,5,0" fill="#4c78a8" stroke-width="2" opacity="0.7"/><path transform="translate(123.07692307692308,50)" d="M5,0A5,5,0,1,1,-5,0A5,5,0,1,1,5,0" fill="#4c78a8" stroke-width="2" opacity="0.7"/><path transform="translate(153.84615384615387,50)" d="M5,0A5,5,0,1,1,-5,0A5,5,0,1,1,5,0" fill="#4c78a8" stroke-width="2" opacity="0.7"/><path transform="translate(184.6153846153846,50)" d="M5,0A5,5,0,1,1,-5,0A5,5,0,1,1,5,0" fill="#4c78a8" stroke-width="2" opacity="0.7"/><path transform="translate(215.3846153846154,50)" d="M5,0A5,5,0,1,1,-5,0A5,5,0,1,1,5,0" fill="#4c78a8" stroke-width="2" opacity="0.7"/><path transform="translate(246.15384615384616,50)" d="M5,0A5,5,0,1,1,-5,0A5,5,0,1,1,5,0" fill="#4c78a8" stroke-width="2" opacity="0.7"/><path transform="translate(276.9230769230769,50)" d="M5,0A5,5,0,1,1,-5,0A5,5,0,1,1,5,0" fill="#4c78a8" stroke-width="2" opacity="0.7"/><path transform="translate(307.69230769230774,50)" d="M5,0A5,5,0,1,1,-5,0A5,5,0,1,1,5,0" fill="#4c78a8" stroke-width="2" opacity="0.7"/><path transform="translate(338.46153846153845,50)" d="M5,0A5,5,0,1,1,-5,0A5,5,0,1,1,5,0" fill="#4c78a8" stroke-width="2" opacity="0.7"/><path transform="translate(369.2307692307692,50)" d="M5,0A5,5,0,1,1,-5,0A5,5,0,1,1,5,0" fill="#4c78a8" stroke-width="2" opacity="0.7"/><path transform="translate(30.76923076923077,0)" d="M5,0A5,5,0,1,1,-5,0A5,5,0,1,1,5,0" fill="#4c78a8" stroke-width="2" opacity="0.7"/><path transform="translate(61.53846153846154,0)" d="M5,0A5,5,0,1,1,-5,0A5,5,0,1,1,5,0" fill="#4c78a8" stroke-width="2" opacity="0.7"/><path transform="translate(92.3076923076923,0)" d="M5,0A5,5,0,1,1,-5,0A5,5,0,1,1,5,0" fill="#4c78a8" stroke-width="2" opacity="0.7"/><path transform="translate(123.07692307692308,0)" d="M5,0A5,5,0,1,1,-5,0A5,5,0,1,1,5,0" fill="#4c78a8" stroke-width="2" opacity="0.7"/><path transform="translate(153.84615384615387,0)" d="M5,0A5,5,0,1,1,-5,0A5,5,0,1,1,5,0" fill="#4c78a8" stroke-width="2" opacity="0.7"/><path transform="translate(184.6153846153846,0)" d="M5,0A5,5,0,1,1,-5,0A5,5,0,1,1,5,0" fill="#4c78a8" stroke-width="2" opacity="0.7"/><path transform="translate(215.3846153846154,0)" d="M5,0A5,5,0,1,1,-5,0A5,5,0,1,1,5,0" fill="#4c78a8" stroke-width="2" opacity="0.7"/><path transform="translate(246.15384615384616,0)" d="M5,0A5,5,0,1,1,-5,0A5,5,0,1,1,5,0" fill="#4c78a8" stroke-width="2" opacity="0.7"/><path transform="translate(276.9230769230769,0)" d="M5,0A5,5,0,1,1,-5,0A5,5,0,1,1,5,0" fill="#4c78a8" stroke-width="2" opacity="0.7"/><path transform="translate(307.69230769230774,0)" d="M5,0A5,5,0,1,1,-5,0A5,5,0,1,1,5,0" fill="#4c78a8" stroke-width="2" opacity="0.7"/><path transform="translate(338.46153846153845,0)" d="M5,0A5,5,0,1,1,-5,0A5,5,0,1,1,5,0" fill="#4c78a8" stroke-width="2" opacity="0.7"/><path transform="translate(369.2307692307692,0)" d="M5,0A5,5,0,1,1,-5,0A5,5,0,1,1,5,0" fill="#4c78a8" stroke-width="2" opacity="0.7"/><path transform="translate(400,0)" d="M5,0A5,5,0,1,1,-5,0A5,5,0,1,1,5,0" fill="#4c78a8" stroke-width="2" opacity="0.7"/><path transform="translate(430.7692307692308,0)" d="M5,0A5,5,0,1,1,-5,0A5,5,0,1,1,5,0" fill="#4c78a8" stroke-width="2" opacity="0.7"/><path transform="translate(461.5384615384615,0)" d="M5,0A5,5,0,1,1,-5,0A5,5,0,1,1,5,0" fill="#4c78a8" stroke-width="2" opacity="0.7"/><path transform="translate(492.3076923076923,0)" d="M5,0A5,5,0,1,1,-5,0A5,5,0,1,1,5,0" fill="#4c78a8" stroke-width="2" opacity="0.7"/><path transform="translate(523.0769230769231,0)" d="M5,0A5,5,0,1,1,-5,0A5,5,0,1,1,5,0" fill="#4c78a8" stroke-width="2" opacity="0.7"/><path transform="translate(553.8461538461538,0)" d="M5,0A5,5,0,1,1,-5,0A5,5,0,1,1,5,0" fill="#4c78a8" stroke-width="2" opacity="0.7"/><path transform="translate(584.6153846153845,0)" d="M5,0A5,5,0,1,1,-5,0A5,5,0,1,1,5,0" fill="#4c78a8" stroke-width="2" opacity="0.7"/><path transform="translate(615.3846153846155,0)" d="M5,0A5,5,0,1,1,-5,0A5,5,0,1,1,5,0" fill="#4c78a8" stroke-width="2" opacity="0.7"/><path transform="translate(646.1538461538462,0)" d="M5,0A5,5,0,1,1,-5,0A5,5,0,1,1,5,0" fill="#4c78a8" stroke-width="2" opacity="0.7"/><path transform="translate(676.9230769230769,0)" d="M5,0A5,5,0,1,1,-5,0A5,5,0,1,1,5,0" fill="#4c78a8" stroke-width="2" opacity="0.7"/><path transform="translate(707.6923076923076,0)" d="M5,0A5,5,0,1,1,-5,0A5,5,0,1,1,5,0" fill="#4c78a8" stroke-width="2" opacity="0.7"/><path transform="translate(738.4615384615385,0)" d="M5,0A5,5,0,1,1,-5,0A5,5,0,1,1,5,0" fill="#4c78a8" stroke-width="2" opacity="0.7"/><path transform="translate(769.2307692307693,0)" d="M5,0A5,5,0,1,1,-5,0A5,5,0,1,1,5,0" fill="#4c78a8" stroke-width="2" opacity="0.7"/><path transform="translate(800,0)" d="M5,0A5,5,0,1,1,-5,0A5,5,0,1,1,5,0" fill="#4c78a8" stroke-width="2" opacity="0.7"/></g><g class="mark-rule role-mark layer_3_layer_0_marks" role="graphics-symbol" aria-roledescription="rule mark container"><line transform="translate(61.53846153846154,10.000000000000009)" x2="30.769230769230766" y2="14.999999999999991" stroke="#33333380" stroke-width="1"/></g><g class="mark-symbol role-mark layer_3_layer_1_marks" role="graphics-symbol" aria-roledescription="symbol mark container"><path transform="translate(92.3076923076923,25) rotate(-30)" d="M0,-4.082L-3.536,2.041L3.536,2.041Z" fill="#33333380" fill-opacity="1" stroke-width="2"/></g><g class="mark-text role-mark layer_3_layer_2_marks" role="graphics-object" aria-roledescription="text mark container"><text text-anchor="start" transform="translate(101.53846153846153,28)" font-family="sans-serif" font-size="10px" fill="black">Abigail files weekly and receives benefits each week until they exhaust their benefits after 26 weeks</text></g><g class="mark-rule role-mark layer_4_layer_0_marks" role="graphics-symbol" aria-roledescription="rule mark container"><line transform="translate(369.2307692307692,60.00000000000001)" x2="30.769230769230774" y2="14.999999999999993" stroke="#33333380" stroke-width="1"/></g><g class="mark-symbol role-mark layer_4_layer_1_marks" role="graphics-symbol" aria-roledescription="symbol mark container"><path transform="translate(400,75) rotate(-30)" d="M0,-4.082L-3.536,2.041L3.536,2.041Z" fill="#33333380" fill-opacity="1" stroke-width="2"/></g><g class="mark-text role-mark layer_4_layer_2_marks" role="graphics-object" aria-roledescription="text mark container"><text text-anchor="start" transform="translate(409.2307692307693,78)" font-family="sans-serif" font-size="10px" fill="black">Bryan lives in Florida, which only provides 12 weeks of benefits</text></g><g class="mark-rule role-mark layer_5_layer_0_marks" role="graphics-symbol" aria-roledescription="rule mark container"><line transform="translate(123.07692307692308,110.00000000000001)" x2="21.538461538461533" y2="14.999999999999986" stroke="#33333380" stroke-width="1"/></g><g class="mark-symbol role-mark layer_5_layer_1_marks" role="graphics-symbol" aria-roledescription="symbol mark container"><path transform="translate(144.6153846153846,125) rotate(-30)" d="M0,-4.082L-3.536,2.041L3.536,2.041Z" fill="#33333380" fill-opacity="1" stroke-width="2"/></g><g class="mark-text role-mark layer_5_layer_2_marks" role="graphics-object" aria-roledescription="text mark container"><text text-anchor="start" transform="translate(156.92307692307693,128)" font-family="sans-serif" font-size="10px" fill="black">Carlos doesn't file their weekly certification week 4, and therefore doesn't receve benefits</text></g><g class="mark-rule role-mark layer_6_layer_0_marks" role="graphics-symbol" aria-roledescription="rule mark container"><line transform="translate(30.76923076923077,160)" x2="18.461538461538463" y2="15" stroke="#33333380" stroke-width="1"/></g><g class="mark-symbol role-mark layer_6_layer_1_marks" role="graphics-symbol" aria-roledescription="symbol mark container"><path transform="translate(49.23076923076923,175) rotate(-30)" d="M0,-4.082L-3.536,2.041L3.536,2.041Z" fill="#33333380" fill-opacity="1" stroke-width="2"/></g><g class="mark-text role-mark layer_6_layer_2_marks" role="graphics-object" aria-roledescription="text mark container"><text text-anchor="start" transform="translate(61.53846153846154,178)" font-family="sans-serif" font-size="10px" fill="black">Divya never files an initial claim</text></g><g class="mark-group role-title"><g transform="translate(-26.6845703125,-54)"><path class="background" aria-hidden="true" d="M0,0h0v0h0Z" pointer-events="none"/><g><g class="mark-text role-title-text" role="graphics-symbol" aria-roledescription="title" aria-label="Title text 'Filing for UI isn't something you do just once, it's something you have to do every week'" pointer-events="none"><text text-anchor="start" transform="translate(0,10)" font-family="sans-serif" font-size="13px" font-weight="bold" fill="#000" opacity="1">Filing for UI isn't something you do just once, it's something you have to do every week</text></g><g class="mark-text role-title-subtitle" role="graphics-symbol" aria-roledescription="subtitle" aria-label="Subtitle text 'Individuals first must be eligible for UI, then file their initial claim, then file each week'" pointer-events="none"><text text-anchor="start" transform="translate(0,25)" font-family="sans-serif" font-size="12px" fill="#000" opacity="1">Individuals first must be eligible for UI, then file their initial claim, then file each week</text></g></g><path class="foreground" aria-hidden="true" d="" pointer-events="none" display="none"/></g></g></g><path class="foreground" aria-hidden="true" d="" display="none"/></g></g></g></svg>