<svg xmlns="http://www.w3.org/2000/svg" xmlns:xlink="http://www.w3.org/1999/xlink" version="1.1" class="marks" width="883" height="307" viewBox="0 0 883 307"><rect width="883" height="307" fill="white"/><g fill="none" stroke-miterlimit="10" transform="translate(78,57)"><g class="mark-group role-frame root" role="graphics-object" aria-roledescription="group mark container"><g transform="translate(0,0)"><path class="background" aria-hidden="true" d="M0.5,0.5h800v200h-800Z"/><g><g class="mark-group role-axis" aria-hidden="true"><g transform="translate(0.5,0.5)"><path class="background" aria-hidden="true" d="M0,0h0v0h0Z" pointer-events="none"/><g><g class="mark-rule role-axis-grid" pointer-events="none"><line transform="translate(0,200)" x2="800" y2="0" stroke="#33333320" stroke-width="1" stroke-dasharray="3,3" opacity="1"/><line transform="translate(0,150)" x2="800" y2="0" stroke="#33333320" stroke-width="1" stroke-dasharray="3,3" opacity="1"/><line transform="translate(0,100)" x2="800" y2="0" stroke="#33333320" stroke-width="1" stroke-dasharray="3,3" opacity="1"/><line transform="translate(0,50)" x2="800" y2="0" stroke="#33333320" stroke-width="1" stroke-dasharray="3,3" opacity="1"/><line transform="translate(0,0)" x2="800" y2="0" stroke="#33333320" stroke-width="1" stroke-dasharray="3,3" opacity="1"/></g></g><path class="foreground" aria-hidden="true" d="" pointer-events="none" display="none"/></g></g><g class="mark-group role-axis" role="graphics-symbol" aria-roledescription="axis" aria-label="X-axis titled 'State' for a discrete scale with 53 values: CA, TX, NY, FL, PA, ending with PR"><g transform="translate(0.5,200.5)"><path class="background" aria-hidden="true" d="M0,0h0v0h0Z" pointer-events="none"/><g><g class="mark-rule role-axis-tick" pointer-events="none"><line transform="translate(7,0)" x2="0" y2="5" stroke="#888" stroke-width="1" opacity="1"/><line transform="translate(22,0)" x2="0" y2="5" stroke="#888" stroke-width="1" opacity="1"/><line transform="translate(37,0)" x2="0" y2="5" stroke="#888" stroke-width="1" opacity="1"/><line transform="translate(52,0)" x2="0" y2="5" stroke="#888" stroke-width="1" opacity="1"/><line transform="translate(67,0)" x2="0" y2="5" stroke="#888" stroke-width="1" opacity="1"/><line transform="translate(83,0)" x2="0" y2="5" stroke="#888" stroke-width="1" opacity="1"/><line transform="translate(98,0)" x2="0" y2="5" stroke="#888" stroke-width="1" opacity="1"/><line transform="translate(113,0)" x2="0" y2="5" stroke="#888" stroke-width="1" opacity="1"/><line transform="translate(128,0)" x2="0" y2="5" stroke="#888" stroke-width="1" opacity="1"/><line transform="translate(143,0)" x2="0" y2="5" stroke="#888" stroke-width="1" opacity="1"/><line transform="translate(158,0)" x2="0" y2="5" stroke="#888" stroke-width="1" opacity="1"/><line transform="translate(173,0)" x2="0" y2="5" stroke="#888" stroke-width="1" opacity="1"/><line transform="translate(188,0)" x2="0" y2="5" stroke="#888" stroke-width="1" opacity="1"/><line transform="translate(203,0)" x2="0" y2="5" stroke="#888" stroke-width="1" opacity="1"/><line transform="translate(218,0)" x2="0" y2="5" stroke="#888" stroke-width="1" opacity="1"/><line transform="translate(233,0)" x2="0" y2="5" stroke="#888" stroke-width="1" opacity="1"/><line transform="translate(249,0)" x2="0" y2="5" stroke="#888" stroke-width="1" opacity="1"/><line transform="translate(264,0)" x2="0" y2="5" stroke="#888" stroke-width="1" opacity="1"/><line transform="translate(279,0)" x2="0" y2="5" stroke="#888" stroke-width="1" opacity="1"/><line transform="translate(294,0)" x2="0" y2="5" stroke="#888" stroke-width="1" opacity="1"/><line transform="translate(309,0)" x2="0" y2="5" stroke="#888" stroke-width="1" opacity="1"/><line transform="translate(324,0)" x2="0" y2="5" stroke="#888" stroke-width="1" opacity="1"/><line transform="translate(339,0)" x2="0" y2="5" stroke="#888" stroke-width="1" opacity="1"/><line transform="translate(354,0)" x2="0" y2="5" stroke="#888" stroke-width="1" opacity="1"/><line transform="translate(369,0)" x2="0" y2="5" stroke="#888" stroke-width="1" opacity="1"/><line transform="translate(384,0)" x2="0" y2="5" stroke="#888" stroke-width="1" opacity="1"/><line transform="translate(400,0)" x2="0" y2="5" stroke="#888" stroke-width="1" opacity="1"/><line transform="translate(415,0)" x2="0" y2="5" stroke="#888" stroke-width="1" opacity="1"/><line transform="translate(430,0)" x2="0" y2="5" stroke="#888" stroke-width="1" opacity="1"/><line transform="translate(445,0)" x2="0" y2="5" stroke="#888" stroke-width="1" opacity="1"/><line transform="translate(460,0)" x2="0" y2="5" stroke="#888" stroke-width="1" opacity="1"/><line transform="translate(475,0)" x2="0" y2="5" stroke="#888" stroke-width="1" opacity="1"/><line transform="translate(490,0)" x2="0" y2="5" stroke="#888" stroke-width="1" opacity="1"/><line transform="translate(505,0)" x2="0" y2="5" stroke="#888" stroke-width="1" opacity="1"/><line transform="translate(520,0)" x2="0" y2="5" stroke="#888" stroke-width="1" opacity="1"/><line transform="translate(535,0)" x2="0" y2="5" stroke="#888" stroke-width="1" opacity="1"/><line transform="translate(550,0)" x2="0" y2="5" stroke="#888" stroke-width="1" opacity="1"/><line transform="translate(566,0)" x2="0" y2="5" stroke="#888" stroke-width="1" opacity="1"/><line transform="translate(581,0)" x2="0" y2="5" stroke="#888" stroke-width="1" opacity="1"/><line transform="translate(596,0)" x2="0" y2="5" stroke="#888" stroke-width="1" opacity="1"/><line transform="translate(611,0)" x2="0" y2="5" stroke="#888" stroke-width="1" opacity="1"/><line transform="translate(626,0)" x2="0" y2="5" stroke="#888" stroke-width="1" opacity="1"/><line transform="translate(641,0)" x2="0" y2="5" stroke="#888" stroke-width="1" opacity="1"/><line transform="translate(656,0)" x2="0" y2="5" stroke="#888" stroke-width="1" opacity="1"/><line transform="translate(671,0)" x2="0" y2="5" stroke="#888" stroke-width="1" opacity="1"/><line transform="translate(686,0)" x2="0" y2="5" stroke="#888" stroke-width="1" opacity="1"/><line transform="translate(701,0)" x2="0" y2="5" stroke="#888" stroke-width="1" opacity="1"/><line transform="translate(716,0)" x2="0" y2="5" stroke="#888" stroke-width="1" opacity="1"/><line transform="translate(732,0)" x2="0" y2="5" stroke="#888" stroke-width="1" opacity="1"/><line transform="translate(747,0)" x2="0" y2="5" stroke="#888" stroke-width="1" opacity="1"/><line transform="translate(762,0)" x2="0" y2="5" stroke="#888" stroke-width="1" opacity="1"/><line transform="translate(777,0)" x2="0" y2="5" stroke="#888" stroke-width="1" opacity="1"/><line transform="translate(792,0)" x2="0" y2="5" stroke="#888" stroke-width="1" opacity="1"/></g><g class="mark-text role-axis-label" pointer-events="none"><text text-anchor="end" transform="translate(7.047169811320785,7) rotate(270) translate(0,3)" font-family="Helvetica" font-size="10px" fill="#000" opacity="1">CA</text><text text-anchor="end" transform="translate(22.141509433962295,7) rotate(270) translate(0,3)" font-family="Helvetica" font-size="10px" fill="#000" opacity="1">TX</text><text text-anchor="end" transform="translate(37.235849056603804,7) rotate(270) translate(0,3)" font-family="Helvetica" font-size="10px" fill="#000" opacity="1">NY</text><text text-anchor="end" transform="translate(52.33018867924531,7) rotate(270) translate(0,3)" font-family="Helvetica" font-size="10px" fill="#000" opacity="1">FL</text><text text-anchor="end" transform="translate(67.42452830188682,7) rotate(270) translate(0,3)" font-family="Helvetica" font-size="10px" fill="#000" opacity="1">PA</text><text text-anchor="end" transform="translate(82.51886792452834,7) rotate(270) translate(0,3)" font-family="Helvetica" font-size="10px" fill="#000" opacity="1">IL</text><text text-anchor="end" transform="translate(97.61320754716984,7) rotate(270) translate(0,3)" font-family="Helvetica" font-size="10px" fill="#000" opacity="1">OH</text><text text-anchor="end" transform="translate(112.70754716981135,7) rotate(270) translate(0,3)" font-family="Helvetica" font-size="10px" fill="#000" opacity="1">MI</text><text text-anchor="end" transform="translate(127.80188679245288,7) rotate(270) translate(0,3)" font-family="Helvetica" font-size="10px" fill="#000" opacity="1">NC</text><text text-anchor="end" transform="translate(142.89622641509436,7) rotate(270) translate(0,3)" font-family="Helvetica" font-size="10px" fill="#000" opacity="1">GA</text><text text-anchor="end" transform="translate(157.9905660377359,7) rotate(270) translate(0,3)" font-family="Helvetica" font-size="10px" fill="#000" opacity="1">WA</text><text text-anchor="end" transform="translate(173.0849056603774,7) rotate(270) translate(0,3)" font-family="Helvetica" font-size="10px" fill="#000" opacity="1">AZ</text><text text-anchor="end" transform="translate(188.17924528301887,7) rotate(270) translate(0,3)" font-family="Helvetica" font-size="10px" fill="#000" opacity="1">NJ</text><text text-anchor="end" transform="translate(203.2735849056604,7) rotate(270) translate(0,3)" font-family="Helvetica" font-size="10px" fill="#000" opacity="1">VA</text><text text-anchor="end" transform="translate(218.3679245283019,7) rotate(270) translate(0,3)" font-family="Helvetica" font-size="10px" fill="#000" opacity="1">MA</text><text text-anchor="end" transform="translate(233.46226415094344,7) rotate(270) translate(0,3)" font-family="Helvetica" font-size="10px" fill="#000" opacity="1">MD</text><text text-anchor="end" transform="translate(248.55660377358492,7) rotate(270) translate(0,3)" font-family="Helvetica" font-size="10px" fill="#000" opacity="1">IN</text><text text-anchor="end" transform="translate(263.6509433962264,7) rotate(270) translate(0,3)" font-family="Helvetica" font-size="10px" fill="#000" opacity="1">TN</text><text text-anchor="end" transform="translate(278.74528301886795,7) rotate(270) translate(0,3)" font-family="Helvetica" font-size="10px" fill="#000" opacity="1">MN</text><text text-anchor="end" transform="translate(293.83962264150944,7) rotate(270) translate(0,3)" font-family="Helvetica" font-size="10px" fill="#000" opacity="1">MO</text><text text-anchor="end" transform="translate(308.933962264151,7) rotate(270) translate(0,3)" font-family="Helvetica" font-size="10px" fill="#000" opacity="1">WI</text><text text-anchor="end" transform="translate(324.02830188679246,7) rotate(270) translate(0,3)" font-family="Helvetica" font-size="10px" fill="#000" opacity="1">LA</text><text text-anchor="end" transform="translate(339.122641509434,7) rotate(270) translate(0,3)" font-family="Helvetica" font-size="10px" fill="#000" opacity="1">KY</text><text text-anchor="end" transform="translate(354.2169811320755,7) rotate(270) translate(0,3)" font-family="Helvetica" font-size="10px" fill="#000" opacity="1">CO</text><text text-anchor="end" transform="translate(369.311320754717,7) rotate(270) translate(0,3)" font-family="Helvetica" font-size="10px" fill="#000" opacity="1">OR</text><text text-anchor="end" transform="translate(384.4056603773585,7) rotate(270) translate(0,3)" font-family="Helvetica" font-size="10px" fill="#000" opacity="1">AL</text><text text-anchor="end" transform="translate(399.5,7) rotate(270) translate(0,3)" font-family="Helvetica" font-size="10px" fill="#000" opacity="1">MS</text><text text-anchor="end" transform="translate(414.59433962264154,7) rotate(270) translate(0,3)" font-family="Helvetica" font-size="10px" fill="#000" opacity="1">CT</text><text text-anchor="end" transform="translate(429.688679245283,7) rotate(270) translate(0,3)" font-family="Helvetica" font-size="10px" fill="#000" opacity="1">SC</text><text text-anchor="end" transform="translate(444.78301886792457,7) rotate(270) translate(0,3)" font-family="Helvetica" font-size="10px" fill="#000" opacity="1">NV</text><text text-anchor="end" transform="translate(459.87735849056605,7) rotate(270) translate(0,3)" font-family="Helvetica" font-size="10px" fill="#000" opacity="1">OK</text><text text-anchor="end" transform="translate(474.9716981132076,7) rotate(270) translate(0,3)" font-family="Helvetica" font-size="10px" fill="#000" opacity="1">KS</text><text text-anchor="end" transform="translate(490.0660377358491,7) rotate(270) translate(0,3)" font-family="Helvetica" font-size="10px" fill="#000" opacity="1">NM</text><text text-anchor="end" transform="translate(505.16037735849056,7) rotate(270) translate(0,3)" font-family="Helvetica" font-size="10px" fill="#000" opacity="1">AR</text><text text-anchor="end" transform="translate(520.2547169811321,7) rotate(270) translate(0,3)" font-family="Helvetica" font-size="10px" fill="#000" opacity="1">IA</text><text text-anchor="end" transform="translate(535.3490566037736,7) rotate(270) translate(0,3)" font-family="Helvetica" font-size="10px" fill="#000" opacity="1">UT</text><text text-anchor="end" transform="translate(550.4433962264152,7) rotate(270) translate(0,3)" font-family="Helvetica" font-size="10px" fill="#000" opacity="1">WV</text><text text-anchor="end" transform="translate(565.5377358490567,7) rotate(270) translate(0,3)" font-family="Helvetica" font-size="10px" fill="#000" opacity="1">NE</text><text text-anchor="end" transform="translate(580.6320754716982,7) rotate(270) translate(0,3)" font-family="Helvetica" font-size="10px" fill="#000" opacity="1">ID</text><text text-anchor="end" transform="translate(595.7264150943397,7) rotate(270) translate(0,3)" font-family="Helvetica" font-size="10px" fill="#000" opacity="1">DC</text><text text-anchor="end" transform="translate(610.8207547169812,7) rotate(270) translate(0,3)" font-family="Helvetica" font-size="10px" fill="#000" opacity="1">ME</text><text text-anchor="end" transform="translate(625.9150943396227,7) rotate(270) translate(0,3)" font-family="Helvetica" font-size="10px" fill="#000" opacity="1">RI</text><text text-anchor="end" transform="translate(641.0094339622642,7) rotate(270) translate(0,3)" font-family="Helvetica" font-size="10px" fill="#000" opacity="1">NH</text><text text-anchor="end" transform="translate(656.1037735849058,7) rotate(270) translate(0,3)" font-family="Helvetica" font-size="10px" fill="#000" opacity="1">AK</text><text text-anchor="end" transform="translate(671.1981132075473,7) rotate(270) translate(0,3)" font-family="Helvetica" font-size="10px" fill="#000" opacity="1">MT</text><text text-anchor="end" transform="translate(686.2924528301887,7) rotate(270) translate(0,3)" font-family="Helvetica" font-size="10px" fill="#000" opacity="1">DE</text><text text-anchor="end" transform="translate(701.3867924528303,7) rotate(270) translate(0,3)" font-family="Helvetica" font-size="10px" fill="#000" opacity="1">HI</text><text text-anchor="end" transform="translate(716.4811320754718,7) rotate(270) translate(0,3)" font-family="Helvetica" font-size="10px" fill="#000" opacity="1">SD</text><text text-anchor="end" transform="translate(731.5754716981132,7) rotate(270) translate(0,3)" font-family="Helvetica" font-size="10px" fill="#000" opacity="1">WY</text><text text-anchor="end" transform="translate(746.6698113207548,7) rotate(270) translate(0,3)" font-family="Helvetica" font-size="10px" fill="#000" opacity="1">ND</text><text text-anchor="end" transform="translate(761.7641509433963,7) rotate(270) translate(0,3)" font-family="Helvetica" font-size="10px" fill="#000" opacity="1">VT</text><text text-anchor="end" transform="translate(776.8584905660379,7) rotate(270) translate(0,3)" font-family="Helvetica" font-size="10px" fill="#000" opacity="1">VI</text><text text-anchor="end" transform="translate(791.9528301886793,7) rotate(270) translate(0,3)" font-family="Helvetica" font-size="10px" fill="#000" opacity="1">PR</text></g><g class="mark-rule role-axis-domain" pointer-events="none"><line transform="translate(0,0)" x2="800" y2="0" stroke="#888" stroke-width="1" opacity="1"/></g><g class="mark-text role-axis-title" pointer-events="none"><text text-anchor="middle" transform="translate(400,42.24609375)" font-family="Helvetica" font-size="11px" font-weight="bold" fill="#000" opacity="1">State</text></g></g><path class="foreground" aria-hidden="true" d="" pointer-events="none" display="none"/></g></g><g class="mark-group role-axis" role="graphics-symbol" aria-roledescription="axis" aria-label="Y-axis titled 'Count' for a linear scale with values from 0 to 800,000"><g transform="translate(0.5,0.5)"><path class="background" aria-hidden="true" d="M0,0h0v0h0Z" pointer-events="none"/><g><g class="mark-rule role-axis-tick" pointer-events="none"><line transform="translate(0,200)" x2="-5" y2="0" stroke="#33333320" stroke-width="1" opacity="1"/><line transform="translate(0,150)" x2="-5" y2="0" stroke="#33333320" stroke-width="1" opacity="1"/><line transform="translate(0,100)" x2="-5" y2="0" stroke="#33333320" stroke-width="1" opacity="1"/><line transform="translate(0,50)" x2="-5" y2="0" stroke="#33333320" stroke-width="1" opacity="1"/><line transform="translate(0,0)" x2="-5" y2="0" stroke="#33333320" stroke-width="1" opacity="1"/></g><g class="mark-text role-axis-label" pointer-events="none"><text text-anchor="end" transform="translate(-7,203)" font-family="Helvetica" font-size="10px" fill="#000" opacity="1">0</text><text text-anchor="end" transform="translate(-7,153)" font-family="Helvetica" font-size="10px" fill="#000" opacity="1">200,000</text><text text-anchor="end" transform="translate(-7,103)" font-family="Helvetica" font-size="10px" fill="#000" opacity="1">400,000</text><text text-anchor="end" transform="translate(-7,53)" font-family="Helvetica" font-size="10px" fill="#000" opacity="1">600,000</text><text text-anchor="end" transform="translate(-7,3)" font-family="Helvetica" font-size="10px" fill="#000" opacity="1">800,000</text></g><g class="mark-text role-axis-title" pointer-events="none"><text text-anchor="middle" transform="translate(-61.0537109375,100) rotate(-90) translate(0,-2)" font-family="Helvetica" font-size="11px" font-weight="bold" fill="#000" opacity="1">Count</text></g></g><path class="foreground" aria-hidden="true" d="" pointer-events="none" display="none"/></g></g><g class="mark-rect role-mark layer_0_marks" role="graphics-symbol" aria-roledescription="rect mark container"><path d="M725.2830188679245,197.2685h13.584905660377359v2.731500000000011h-13.584905660377359Z" fill="#33333360"/><path d="M544.1509433962265,190.16225h13.584905660377359v9.83775h-13.584905660377359Z" fill="#33333360"/><path d="M302.6415094339623,175.04h13.584905660377359v24.960000000000008h-13.584905660377359Z" fill="#33333360"/><path d="M151.6981132075472,158.27975h13.584905660377359v41.72024999999999h-13.584905660377359Z" fill="#33333360"/><path d="M755.4716981132076,198.15675h13.584905660377359v1.8432500000000118h-13.584905660377359Z" fill="#33333360"/><path d="M770.5660377358491,200h13.584905660377359v0h-13.584905660377359Z" fill="#33333360"/><path d="M196.98113207547172,169.47175h13.584905660377359v30.528250000000014h-13.584905660377359Z" fill="#33333360"/><path d="M529.0566037735849,189.72275000000002h13.584905660377359v10.277249999999981h-13.584905660377359Z" fill="#33333360"/><path d="M15.849056603773615,76.76849999999999h13.584905660377359v123.23150000000001h-13.584905660377359Z" fill="#33333360"/><path d="M257.35849056603774,172.06375h13.584905660377359v27.93625h-13.584905660377359Z" fill="#33333360"/><path d="M710.1886792452831,196.7675h13.584905660377359v3.2324999999999875h-13.584905660377359Z" fill="#33333360"/><path d="M423.39622641509436,183.83775h13.584905660377359v16.16225h-13.584905660377359Z" fill="#33333360"/><path d="M619.622641509434,194.945h13.584905660377359v5.055000000000007h-13.584905660377359Z" fill="#33333360"/><path d="M785.6603773584906,200h13.584905660377359v0h-13.584905660377359Z" fill="#33333360"/><path d="M61.132075471698144,128.8065h13.584905660377359v71.1935h-13.584905660377359Z" fill="#33333360"/><path d="M363.0188679245283,180.59525000000002h13.584905660377359v19.40474999999998h-13.584905660377359Z" fill="#33333360"/><path d="M453.5849056603774,185.51725000000002h13.584905660377359v14.482749999999982h-13.584905660377359Z" fill="#33333360"/><path d="M91.32075471698116,138.88475h13.584905660377359v61.11525h-13.584905660377359Z" fill="#33333360"/><path d="M30.943396226415125,104.88575h13.584905660377359v95.11425h-13.584905660377359Z" fill="#33333360"/><path d="M438.4905660377359,183.982h13.584905660377359v16.018h-13.584905660377359Z" fill="#33333360"/><path d="M483.7735849056604,188.14975h13.584905660377359v11.850249999999988h-13.584905660377359Z" fill="#33333360"/><path d="M181.8867924528302,159.4135h13.584905660377359v40.5865h-13.584905660377359Z" fill="#33333360"/><path d="M634.7169811320755,194.99900000000002h13.584905660377359v5.000999999999976h-13.584905660377359Z" fill="#33333360"/><path d="M559.245283018868,191.84075h13.584905660377359v8.159249999999986h-13.584905660377359Z" fill="#33333360"/><path d="M740.377358490566,197.75750000000002h13.584905660377359v2.2424999999999784h-13.584905660377359Z" fill="#33333360"/><path d="M121.50943396226418,151.6945h13.584905660377359v48.305499999999995h-13.584905660377359Z" fill="#33333360"/><path d="M664.9056603773586,195.239h13.584905660377359v4.760999999999996h-13.584905660377359Z" fill="#33333360"/><path d="M393.20754716981133,182.39575000000002h13.584905660377359v17.60424999999998h-13.584905660377359Z" fill="#33333360"/><path d="M287.54716981132077,175.03475h13.584905660377359v24.965249999999997h-13.584905660377359Z" fill="#33333360"/><path d="M272.4528301886793,174.4995h13.584905660377359v25.500499999999988h-13.584905660377359Z" fill="#33333360"/><path d="M106.41509433962267,149.36175h13.584905660377359v50.63825h-13.584905660377359Z" fill="#33333360"/><path d="M604.5283018867925,194.9375h13.584905660377359v5.0625h-13.584905660377359Z" fill="#33333360"/><path d="M227.16981132075475,171.83625h13.584905660377359v28.163749999999993h-13.584905660377359Z" fill="#33333360"/><path d="M212.07547169811323,170.82225h13.584905660377359v29.177750000000003h-13.584905660377359Z" fill="#33333360"/><path d="M317.7358490566038,175.5915h13.584905660377359v24.408500000000004h-13.584905660377359Z" fill="#33333360"/><path d="M332.83018867924534,178.79149999999998h13.584905660377359v21.208500000000015h-13.584905660377359Z" fill="#33333360"/><path d="M468.67924528301893,188.06175000000002h13.584905660377359v11.938249999999982h-13.584905660377359Z" fill="#33333360"/><path d="M242.26415094339626,171.898h13.584905660377359v28.102000000000004h-13.584905660377359Z" fill="#33333360"/><path d="M76.22641509433966,134.94325h13.584905660377359v65.05675h-13.584905660377359Z" fill="#33333360"/><path d="M574.3396226415094,193.58249999999998h13.584905660377359v6.417500000000018h-13.584905660377359Z" fill="#33333360"/><path d="M513.9622641509434,188.34900000000002h13.584905660377359v11.650999999999982h-13.584905660377359Z" fill="#33333360"/><path d="M695.0943396226415,195.67575h13.584905660377359v4.324250000000006h-13.584905660377359Z" fill="#33333360"/><path d="M136.6037735849057,153.7695h13.584905660377359v46.230500000000006h-13.584905660377359Z" fill="#33333360"/><path d="M46.03773584905663,116.66099999999999h13.584905660377359v83.33900000000001h-13.584905660377359Z" fill="#33333360"/><path d="M680,195.6665h13.584905660377359v4.333499999999987h-13.584905660377359Z" fill="#33333360"/><path d="M589.433962264151,194.4505h13.584905660377359v5.549499999999995h-13.584905660377359Z" fill="#33333360"/><path d="M408.3018867924529,182.62199999999999h13.584905660377359v17.378000000000014h-13.584905660377359Z" fill="#33333360"/><path d="M347.9245283018868,179.344h13.584905660377359v20.656000000000006h-13.584905660377359Z" fill="#33333360"/><path d="M0.7547169811321055,1.0722499999999968h13.584905660377359v198.92775h-13.584905660377359Z" fill="#33333360"/><path d="M166.79245283018872,158.787h13.584905660377359v41.212999999999994h-13.584905660377359Z" fill="#33333360"/><path d="M498.8679245283019,188.171h13.584905660377359v11.829000000000008h-13.584905660377359Z" fill="#33333360"/><path d="M378.11320754716985,181.886h13.584905660377359v18.114000000000004h-13.584905660377359Z" fill="#33333360"/><path d="M649.811320754717,195.042h13.584905660377359v4.957999999999998h-13.584905660377359Z" fill="#33333360"/></g><g class="mark-rect role-mark layer_1_marks" role="graphics-symbol" aria-roledescription="rect mark container"><path d="M725.2830188679245,199.3748122871864h13.584905660377359v0.625187712813613h-13.584905660377359Z" fill="#4c78a8"/><path d="M544.1509433962265,196.86512967069893h13.584905660377359v3.134870329301066h-13.584905660377359Z" fill="#4c78a8"/><path d="M302.6415094339623,192.14885222894264h13.584905660377359v7.851147771057356h-13.584905660377359Z" fill="#4c78a8"/><path d="M151.6981132075472,187.99016694668458h13.584905660377359v12.009833053315418h-13.584905660377359Z" fill="#4c78a8"/><path d="M755.4716981132076,199.04122616487456h13.584905660377359v0.9587738351254416h-13.584905660377359Z" fill="#4c78a8"/><path d="M770.5660377358491,199.88383753360216h13.584905660377359v0.11616246639783867h-13.584905660377359Z" fill="#4c78a8"/><path d="M196.98113207547172,194.9018671594982h13.584905660377359v5.0981328405017905h-13.584905660377359Z" fill="#4c78a8"/><path d="M529.0566037735849,197.8960646841398h13.584905660377359v2.1039353158602125h-13.584905660377359Z" fill="#4c78a8"/><path d="M15.849056603773615,169.94841551299282h13.584905660377359v30.051584487007176h-13.584905660377359Z" fill="#4c78a8"/><path d="M257.35849056603774,196.17359322356631h13.584905660377359v3.8264067764336858h-13.584905660377359Z" fill="#4c78a8"/><path d="M710.1886792452831,199.56249965277777h13.584905660377359v0.4375003472222261h-13.584905660377359Z" fill="#4c78a8"/><path d="M423.39622641509436,196.34658730958782h13.584905660377359v3.653412690412182h-13.584905660377359Z" fill="#4c78a8"/><path d="M619.622641509434,197.86583519265233h13.584905660377359v2.1341648073476733h-13.584905660377359Z" fill="#4c78a8"/><path d="M785.6603773584906,196.41025228494624h13.584905660377359v3.589747715053761h-13.584905660377359Z" fill="#4c78a8"/><path d="M61.132075471698144,172.29816452732976h13.584905660377359v27.70183547267024h-13.584905660377359Z" fill="#4c78a8"/><path d="M363.0188679245283,193.23307841621863h13.584905660377359v6.766921583781368h-13.584905660377359Z" fill="#4c78a8"/><path d="M453.5849056603774,196.33428294130823h13.584905660377359v3.6657170586917687h-13.584905660377359Z" fill="#4c78a8"/><path d="M91.32075471698116,187.46706527777778h13.584905660377359v12.532934722222222h-13.584905660377359Z" fill="#4c78a8"/><path d="M30.943396226415125,166.1223104390681h13.584905660377359v33.87768956093191h-13.584905660377359Z" fill="#4c78a8"/><path d="M438.4905660377359,195.75060336021505h13.584905660377359v4.249396639784948h-13.584905660377359Z" fill="#4c78a8"/><path d="M483.7735849056604,197.83813528225807h13.584905660377359v2.161864717741935h-13.584905660377359Z" fill="#4c78a8"/><path d="M181.8867924528302,176.64532389112904h13.584905660377359v23.35467610887096h-13.584905660377359Z" fill="#4c78a8"/><path d="M634.7169811320755,199.23542006048388h13.584905660377359v0.7645799395161248h-13.584905660377359Z" fill="#4c78a8"/><path d="M559.245283018868,198.9472882280466h13.584905660377359v1.0527117719533976h-13.584905660377359Z" fill="#4c78a8"/><path d="M740.377358490566,199.01989480286738h13.584905660377359v0.980105197132616h-13.584905660377359Z" fill="#4c78a8"/><path d="M121.50943396226418,195.6169168682796h13.584905660377359v4.3830831317204115h-13.584905660377359Z" fill="#4c78a8"/><path d="M664.9056603773586,198.21927409274193h13.584905660377359v1.7807259072580734h-13.584905660377359Z" fill="#4c78a8"/><path d="M393.20754716981133,198.22583381496415h13.584905660377359v1.7741661850358525h-13.584905660377359Z" fill="#4c78a8"/><path d="M287.54716981132077,194.88001818996418h13.584905660377359v5.119981810035824h-13.584905660377359Z" fill="#4c78a8"/><path d="M272.4528301886793,189.55005069444445h13.584905660377359v10.449949305555549h-13.584905660377359Z" fill="#4c78a8"/><path d="M106.41509433962267,186.6341158042115h13.584905660377359v13.36588419578851h-13.584905660377359Z" fill="#4c78a8"/><path d="M604.5283018867925,198.64287338709676h13.584905660377359v1.3571266129032438h-13.584905660377359Z" fill="#4c78a8"/><path d="M227.16981132075475,193.59231148073476h13.584905660377359v6.4076885192652355h-13.584905660377359Z" fill="#4c78a8"/><path d="M212.07547169811323,185.08708837365592h13.584905660377359v14.912911626344084h-13.584905660377359Z" fill="#4c78a8"/><path d="M317.7358490566038,197.28580612679212h13.584905660377359v2.7141938732078756h-13.584905660377359Z" fill="#4c78a8"/><path d="M332.83018867924534,195.64781573700716h13.584905660377359v4.352184262992836h-13.584905660377359Z" fill="#4c78a8"/><path d="M468.67924528301893,197.79371446012547h13.584905660377359v2.2062855398745285h-13.584905660377359Z" fill="#4c78a8"/><path d="M242.26415094339626,195.01661770833334h13.584905660377359v4.983382291666658h-13.584905660377359Z" fill="#4c78a8"/><path d="M76.22641509433966,176.01085356182796h13.584905660377359v23.989146438172043h-13.584905660377359Z" fill="#4c78a8"/><path d="M574.3396226415094,198.47012217741934h13.584905660377359v1.5298778225806586h-13.584905660377359Z" fill="#4c78a8"/><path d="M513.9622641509434,194.9916422267025h13.584905660377359v5.00835777329749h-13.584905660377359Z" fill="#4c78a8"/><path d="M695.0943396226415,198.19585539874552h13.584905660377359v1.8041446012544782h-13.584905660377359Z" fill="#4c78a8"/><path d="M136.6037735849057,193.70717563844087h13.584905660377359v6.292824361559127h-13.584905660377359Z" fill="#4c78a8"/><path d="M46.03773584905663,191.91775070564518h13.584905660377359v8.082249294354824h-13.584905660377359Z" fill="#4c78a8"/><path d="M680,198.72675418906812h13.584905660377359v1.2732458109318827h-13.584905660377359Z" fill="#4c78a8"/><path d="M589.433962264151,198.1351426299283h13.584905660377359v1.8648573700716895h-13.584905660377359Z" fill="#4c78a8"/><path d="M408.3018867924529,191.6309154905914h13.584905660377359v8.369084509408594h-13.584905660377359Z" fill="#4c78a8"/><path d="M347.9245283018868,195.1457616375448h13.584905660377359v4.854238362455192h-13.584905660377359Z" fill="#4c78a8"/><path d="M0.7547169811321055,117.02157204301076h13.584905660377359v82.97842795698924h-13.584905660377359Z" fill="#4c78a8"/><path d="M166.79245283018872,194.99234649417562h13.584905660377359v5.007653505824379h-13.584905660377359Z" fill="#4c78a8"/><path d="M498.8679245283019,197.3363960125448h13.584905660377359v2.66360398745519h-13.584905660377359Z" fill="#4c78a8"/><path d="M378.11320754716985,196.17673713037635h13.584905660377359v3.8232628696236475h-13.584905660377359Z" fill="#4c78a8"/><path d="M649.811320754717,198.17840092965952h13.584905660377359v1.8215990703404827h-13.584905660377359Z" fill="#4c78a8"/></g><g class="mark-group role-title"><g transform="translate(-72.0537109375,-52)"><path class="background" aria-hidden="true" d="M0,0h0v0h0Z" pointer-events="none"/><g><g class="mark-text role-title-text" role="graphics-symbol" aria-roledescription="title" aria-label="Title text 'Some states also have a larger labor market and then have an outsize influence on recipiency'" pointer-events="none"><text text-anchor="start" transform="translate(0,10)" font-family="sans-serif" font-size="13px" font-weight="bold" fill="#000" opacity="1">Some states also have a larger labor market and then have an outsize influence on recipiency</text></g><g class="mark-text role-title-subtitle" role="graphics-symbol" aria-roledescription="subtitle" aria-label="Subtitle text 'Average claims per week 2019'" pointer-events="none"><text text-anchor="start" transform="translate(0,25)" font-family="sans-serif" font-size="12px" fill="#000" opacity="1">Average claims per week 2019</text></g></g><path class="foreground" aria-hidden="true" d="" pointer-events="none" display="none"/></g></g></g><path class="foreground" aria-hidden="true" d="" display="none"/></g></g></g></svg>