<svg xmlns="http://www.w3.org/2000/svg" xmlns:xlink="http://www.w3.org/1999/xlink" version="1.1" class="marks" width="840" height="518" viewBox="0 0 840 518"><rect width="840" height="518" fill="white"/><g fill="none" stroke-miterlimit="10" transform="translate(32,58)"><g class="mark-group role-frame root" role="graphics-object" aria-roledescription="group mark container"><g transform="translate(0,0)"><path class="background" aria-hidden="true" d="M0,0h0v0h0Z"/><g><g class="mark-group role-row-header row_header" role="graphics-object" aria-roledescription="group mark container"><g transform="translate(-3,0)"><path class="background" aria-hidden="true" d="M0,0h0v30h0Z"/><g><g class="mark-group role-title"><g transform="translate(-23.8916015625,15)"><path class="background" aria-hidden="true" d="M0,0h0v0h0Z" pointer-events="none"/><g><g class="mark-text role-title-text" role="graphics-symbol" aria-roledescription="title" aria-label="Title text 'CA'" pointer-events="none"><text text-anchor="start" transform="translate(0,3)" font-family="sans-serif" font-size="10px" fill="#000" opacity="1">CA</text></g></g><path class="foreground" aria-hidden="true" d="" pointer-events="none" display="none"/></g></g></g><path class="foreground" aria-hidden="true" d="" display="none"/></g><g transform="translate(-3,65)"><path class="background" aria-hidden="true" d="M0,0h0v30h0Z"/><g><g class="mark-group role-title"><g transform="translate(-21.669921875,15)"><path class="background" aria-hidden="true" d="M0,0h0v0h0Z" pointer-events="none"/><g><g class="mark-text role-title-text" role="graphics-symbol" aria-roledescription="title" aria-label="Title text 'FL'" pointer-events="none"><text text-anchor="start" transform="translate(0,3)" font-family="sans-serif" font-size="10px" fill="#000" opacity="1">FL</text></g></g><path class="foreground" aria-hidden="true" d="" pointer-events="none" display="none"/></g></g></g><path class="foreground" aria-hidden="true" d="" display="none"/></g><g transform="translate(-3,130)"><path class="background" aria-hidden="true" d="M0,0h0v30h0Z"/><g><g class="mark-group role-title"><g transform="translate(-18.33984375,15)"><path class="background" aria-hidden="true" d="M0,0h0v0h0Z" pointer-events="none"/><g><g class="mark-text role-title-text" role="graphics-symbol" aria-roledescription="title" aria-label="Title text 'IL'" pointer-events="none"><text text-anchor="start" transform="translate(0,3)" font-family="sans-serif" font-size="10px" fill="#000" opacity="1">IL</text></g></g><path class="foreground" aria-hidden="true" d="" pointer-events="none" display="none"/></g></g></g><path class="foreground" aria-hidden="true" d="" display="none"/></g><g transform="translate(-3,195)"><path class="background" aria-hidden="true" d="M0,0h0v30h0Z"/><g><g class="mark-group role-title"><g transform="translate(-22.2216796875,15)"><path class="background" aria-hidden="true" d="M0,0h0v0h0Z" pointer-events="none"/><g><g class="mark-text role-title-text" role="graphics-symbol" aria-roledescription="title" aria-label="Title text 'NJ'" pointer-events="none"><text text-anchor="start" transform="translate(0,3)" font-family="sans-serif" font-size="10px" fill="#000" opacity="1">NJ</text></g></g><path class="foreground" aria-hidden="true" d="" pointer-events="none" display="none"/></g></g></g><path class="foreground" aria-hidden="true" d="" display="none"/></g><g transform="translate(-3,260)"><path class="background" aria-hidden="true" d="M0,0h0v30h0Z"/><g><g class="mark-group role-title"><g transform="translate(-23.8916015625,15)"><path class="background" aria-hidden="true" d="M0,0h0v0h0Z" pointer-events="none"/><g><g class="mark-text role-title-text" role="graphics-symbol" aria-roledescription="title" aria-label="Title text 'NY'" pointer-events="none"><text text-anchor="start" transform="translate(0,3)" font-family="sans-serif" font-size="10px" fill="#000" opacity="1">NY</text></g></g><path class="foreground" aria-hidden="true" d="" pointer-events="none" display="none"/></g></g></g><path class="foreground" aria-hidden="true" d="" display="none"/></g><g transform="translate(-3,325)"><path class="background" aria-hidden="true" d="M0,0h0v30h0Z"/><g><g class="mark-group role-title"><g transform="translate(-22.59765625,15)"><path class="background" aria-hidden="true" d="M0,0h0v0h0Z" pointer-events="none"/><g><g class="mark-text role-title-text" role="graphics-symbol" aria-roledescription="title" aria-label="Title text 'PA'" pointer-events="none"><text text-anchor="start" transform="translate(0,3)" font-family="sans-serif" font-size="10px" fill="#000" opacity="1">PA</text></g></g><path class="foreground" aria-hidden="true" d="" pointer-events="none" display="none"/></g></g></g><path class="foreground" aria-hidden="true" d="" display="none"/></g><g transform="translate(-3,390)"><path class="background" aria-hidden="true" d="M0,0h0v30h0Z"/><g><g class="mark-group role-title"><g transform="translate(-22.7783203125,15)"><path class="background" aria-hidden="true" d="M0,0h0v0h0Z" pointer-events="none"/><g><g class="mark-text role-title-text" role="graphics-symbol" aria-roledescription="title" aria-label="Title text 'TX'" pointer-events="none"><text text-anchor="start" transform="translate(0,3)" font-family="sans-serif" font-size="10px" fill="#000" opacity="1">TX</text></g></g><path class="foreground" aria-hidden="true" d="" pointer-events="none" display="none"/></g></g></g><path class="foreground" aria-hidden="true" d="" display="none"/></g></g><g class="mark-group role-column-footer column_footer" role="graphics-object" aria-roledescription="group mark container"><g transform="translate(0,423)"><path class="background" aria-hidden="true" d="M0,0h800v0h-800Z"/><g><g class="mark-group role-axis" role="graphics-symbol" aria-roledescription="axis" aria-label="X-axis titled 'Recipency Rate' for a linear scale with values from 0% to 100%"><g transform="translate(0.5,0.5)"><path class="background" aria-hidden="true" d="M0,0h0v0h0Z" pointer-events="none"/><g><g class="mark-rule role-axis-tick" pointer-events="none"><line transform="translate(0,0)" x2="0" y2="5" stroke="#888" stroke-width="1" opacity="1"/><line transform="translate(40,0)" x2="0" y2="5" stroke="#888" stroke-width="1" opacity="1"/><line transform="translate(80,0)" x2="0" y2="5" stroke="#888" stroke-width="1" opacity="1"/><line transform="translate(120,0)" x2="0" y2="5" stroke="#888" stroke-width="1" opacity="1"/><line transform="translate(160,0)" x2="0" y2="5" stroke="#888" stroke-width="1" opacity="1"/><line transform="translate(200,0)" x2="0" y2="5" stroke="#888" stroke-width="1" opacity="1"/><line transform="translate(240,0)" x2="0" y2="5" stroke="#888" stroke-width="1" opacity="1"/><line transform="translate(280,0)" x2="0" y2="5" stroke="#888" stroke-width="1" opacity="1"/><line transform="translate(320,0)" x2="0" y2="5" stroke="#888" stroke-width="1" opacity="1"/><line transform="translate(360,0)" x2="0" y2="5" stroke="#888" stroke-width="1" opacity="1"/><line transform="translate(400,0)" x2="0" y2="5" stroke="#888" stroke-width="1" opacity="1"/><line transform="translate(440,0)" x2="0" y2="5" stroke="#888" stroke-width="1" opacity="1"/><line transform="translate(480,0)" x2="0" y2="5" stroke="#888" stroke-width="1" opacity="1"/><line transform="translate(520,0)" x2="0" y2="5" stroke="#888" stroke-width="1" opacity="1"/><line transform="translate(560,0)" x2="0" y2="5" stroke="#888" stroke-width="1" opacity="1"/><line transform="translate(600,0)" x2="0" y2="5" stroke="#888" stroke-width="1" opacity="1"/><line transform="translate(640,0)" x2="0" y2="5" stroke="#888" stroke-width="1" opacity="1"/><line transform="translate(680,0)" x2="0" y2="5" stroke="#888" stroke-width="1" opacity="1"/><line transform="translate(720,0)" x2="0" y2="5" stroke="#888" stroke-width="1" opacity="1"/><line transform="translate(760,0)" x2="0" y2="5" stroke="#888" stroke-width="1" opacity="1"/><line transform="translate(800,0)" x2="0" y2="5" stroke="#888" stroke-width="1" opacity="1"/></g><g class="mark-text role-axis-label" pointer-events="none"><text text-anchor="start" transform="translate(0,15)" font-family="Helvetica" font-size="10px" fill="#000" opacity="1">0%</text><text text-anchor="middle" transform="translate(40,15)" font-family="Helvetica" font-size="10px" fill="#000" opacity="0">5%</text><text text-anchor="middle" transform="translate(80,15)" font-family="Helvetica" font-size="10px" fill="#000" opacity="1">10%</text><text text-anchor="middle" transform="translate(120,15)" font-family="Helvetica" font-size="10px" fill="#000" opacity="0">15%</text><text text-anchor="middle" transform="translate(160,15)" font-family="Helvetica" font-size="10px" fill="#000" opacity="1">20%</text><text text-anchor="middle" transform="translate(200,15)" font-family="Helvetica" font-size="10px" fill="#000" opacity="0">25%</text><text text-anchor="middle" transform="translate(240,15)" font-family="Helvetica" font-size="10px" fill="#000" opacity="1">30%</text><text text-anchor="middle" transform="translate(280,15)" font-family="Helvetica" font-size="10px" fill="#000" opacity="0">35%</text><text text-anchor="middle" transform="translate(320,15)" font-family="Helvetica" font-size="10px" fill="#000" opacity="1">40%</text><text text-anchor="middle" transform="translate(360,15)" font-family="Helvetica" font-size="10px" fill="#000" opacity="0">45%</text><text text-anchor="middle" transform="translate(400,15)" font-family="Helvetica" font-size="10px" fill="#000" opacity="1">50%</text><text text-anchor="middle" transform="translate(440.00000000000006,15)" font-family="Helvetica" font-size="10px" fill="#000" opacity="0">55%</text><text text-anchor="middle" transform="translate(480,15)" font-family="Helvetica" font-size="10px" fill="#000" opacity="1">60%</text><text text-anchor="middle" transform="translate(520,15)" font-family="Helvetica" font-size="10px" fill="#000" opacity="0">65%</text><text text-anchor="middle" transform="translate(560,15)" font-family="Helvetica" font-size="10px" fill="#000" opacity="1">70%</text><text text-anchor="middle" transform="translate(600,15)" font-family="Helvetica" font-size="10px" fill="#000" opacity="0">75%</text><text text-anchor="middle" transform="translate(640,15)" font-family="Helvetica" font-size="10px" fill="#000" opacity="1">80%</text><text text-anchor="middle" transform="translate(680,15)" font-family="Helvetica" font-size="10px" fill="#000" opacity="0">85%</text><text text-anchor="middle" transform="translate(720,15)" font-family="Helvetica" font-size="10px" fill="#000" opacity="1">90%</text><text text-anchor="middle" transform="translate(760,15)" font-family="Helvetica" font-size="10px" fill="#000" opacity="0">95%</text><text text-anchor="end" transform="translate(800,15)" font-family="Helvetica" font-size="10px" fill="#000" opacity="1">100%</text></g><g class="mark-rule role-axis-domain" pointer-events="none"><line transform="translate(0,0)" x2="800" y2="0" stroke="#888" stroke-width="1" opacity="1"/></g><g class="mark-text role-axis-title" pointer-events="none"><text text-anchor="middle" transform="translate(400,30)" font-family="Helvetica" font-size="11px" font-weight="bold" fill="#000" opacity="1">Recipency Rate</text></g></g><path class="foreground" aria-hidden="true" d="" pointer-events="none" display="none"/></g></g></g><path class="foreground" aria-hidden="true" d="" display="none"/></g></g><g class="mark-group role-scope cell" role="graphics-object" aria-roledescription="group mark container"><g transform="translate(0,0)"><path class="background" aria-hidden="true" d="M0.5,0.5h800v30h-800Z"/><g><g class="mark-area role-mark child_layer_0_marks" role="graphics-symbol" aria-roledescription="area mark container"><path d="M0,30L4,30L8,30L12,30L16,30L20,30L24,30L28,30L32,30L36,30L40,30L44,30L48,30L52,30L56,30L60,30L64,30L68,30L72,30L76,30L80,30L84,30L88,30L92,30L96,30L100,30L104,30L108,30L112,29.999L116,29.999L120,29.997L124,29.995L128,29.989L132,29.979L136,29.961L140,29.931L144,29.879L148,29.796L152,29.666L156,29.47L160,29.184L164,28.784L168,28.242L172,27.534L176,26.642L180,25.561L184,24.298L188,22.879L192,21.347L196,19.761L200,18.185L204,16.689L208,15.334L212,14.166L216,13.216L220,12.491L224,11.982L228,11.663L232,11.502L236,11.463L240,11.513L244,11.621L248,11.762L252,11.911L256,12.043L260,12.132L264,12.146L268,12.051L272,11.815L276,11.403L280,10.79L284,9.958L288,8.903L292,7.636L296,6.188L300,4.61L304,2.973L308,1.367L312,-0.105L316,-1.333L320,-2.208L324,-2.637L328,-2.549L332,-1.907L336,-0.709L340,1.003L344,3.156L348,5.646L352,8.353L356,11.149L360,13.914L364,16.542L368,18.95L372,21.083L376,22.91L380,24.428L384,25.652L388,26.613L392,27.348L396,27.9L400,28.309L404,28.609L408,28.83L412,28.994L416,29.117L420,29.213L424,29.288L428,29.35L432,29.402L436,29.448L440,29.489L444,29.526L448,29.558L452,29.583L456,29.601L460,29.608L464,29.604L468,29.587L472,29.56L476,29.524L480,29.482L484,29.438L488,29.397L492,29.362L496,29.338L500,29.327L504,29.329L508,29.345L512,29.371L516,29.406L520,29.445L524,29.482L528,29.514L532,29.535L536,29.542L540,29.534L544,29.511L548,29.474L552,29.428L556,29.377L560,29.327L564,29.283L568,29.25L572,29.229L576,29.221L580,29.224L584,29.234L588,29.248L592,29.259L596,29.265L600,29.262L604,29.251L608,29.234L612,29.215L616,29.197L620,29.187L624,29.187L628,29.198L632,29.22L636,29.25L640,29.283L644,29.313L648,29.335L652,29.344L656,29.338L660,29.317L664,29.284L668,29.244L672,29.2L676,29.159L680,29.123L684,29.093L688,29.067L692,29.042L696,29.011L700,28.967L704,28.905L708,28.819L712,28.709L716,28.575L720,28.422L724,28.257L728,28.089L732,27.93L736,27.789L740,27.676L744,27.601L748,27.569L752,27.585L756,27.649L760,27.759L764,27.911L768,28.096L772,28.306L776,28.528L780,28.753L784,28.971L788,29.173L792,29.354L796,29.508L800,29.637L800,30L796,30L792,30L788,30L784,30L780,30L776,30L772,30L768,30L764,30L760,30L756,30L752,30L748,30L744,30L740,30L736,30L732,30L728,30L724,30L720,30L716,30L712,30L708,30L704,30L700,30L696,30L692,30L688,30L684,30L680,30L676,30L672,30L668,30L664,30L660,30L656,30L652,30L648,30L644,30L640,30L636,30L632,30L628,30L624,30L620,30L616,30L612,30L608,30L604,30L600,30L596,30L592,30L588,30L584,30L580,30L576,30L572,30L568,30L564,30L560,30L556,30L552,30L548,30L544,30L540,30L536,30L532,30L528,30L524,30L520,30L516,30L512,30L508,30L504,30L500,30L496,30L492,30L488,30L484,30L480,30L476,30L472,30L468,30L464,30L460,30L456,30L452,30L448,30L444,30L440,30L436,30L432,30L428,30L424,30L420,30L416,30L412,30L408,30L404,30L400,30L396,30L392,30L388,30L384,30L380,30L376,30L372,30L368,30L364,30L360,30L356,30L352,30L348,30L344,30L340,30L336,30L332,30L328,30L324,30L320,30L316,30L312,30L308,30L304,30L300,30L296,30L292,30L288,30L284,30L280,30L276,30L272,30L268,30L264,30L260,30L256,30L252,30L248,30L244,30L240,30L236,30L232,30L228,30L224,30L220,30L216,30L212,30L208,30L204,30L200,30L196,30L192,30L188,30L184,30L180,30L176,30L172,30L168,30L164,30L160,30L156,30L152,30L148,30L144,30L140,30L136,30L132,30L128,30L124,30L120,30L116,30L112,30L108,30L104,30L100,30L96,30L92,30L88,30L84,30L80,30L76,30L72,30L68,30L64,30L60,30L56,30L52,30L48,30L44,30L40,30L36,30L32,30L28,30L24,30L20,30L16,30L12,30L8,30L4,30L0,30Z" fill="url(#gradient_1)" opacity="0.7"/></g><g class="mark-line role-mark child_layer_1_marks" role="graphics-symbol" aria-roledescription="line mark container"><path d="M0,30L4,30L8,30L12,30L16,30L20,30L24,30L28,30L32,30L36,30L40,30L44,30L48,30L52,30L56,30L60,30L64,30L68,30L72,30L76,30L80,30L84,30L88,30L92,30L96,30L100,30L104,30L108,30L112,29.999L116,29.999L120,29.997L124,29.995L128,29.989L132,29.979L136,29.961L140,29.931L144,29.879L148,29.796L152,29.666L156,29.47L160,29.184L164,28.784L168,28.242L172,27.534L176,26.642L180,25.561L184,24.298L188,22.879L192,21.347L196,19.761L200,18.185L204,16.689L208,15.334L212,14.166L216,13.216L220,12.491L224,11.982L228,11.663L232,11.502L236,11.463L240,11.513L244,11.621L248,11.762L252,11.911L256,12.043L260,12.132L264,12.146L268,12.051L272,11.815L276,11.403L280,10.79L284,9.958L288,8.903L292,7.636L296,6.188L300,4.61L304,2.973L308,1.367L312,-0.105L316,-1.333L320,-2.208L324,-2.637L328,-2.549L332,-1.907L336,-0.709L340,1.003L344,3.156L348,5.646L352,8.353L356,11.149L360,13.914L364,16.542L368,18.95L372,21.083L376,22.91L380,24.428L384,25.652L388,26.613L392,27.348L396,27.9L400,28.309L404,28.609L408,28.83L412,28.994L416,29.117L420,29.213L424,29.288L428,29.35L432,29.402L436,29.448L440,29.489L444,29.526L448,29.558L452,29.583L456,29.601L460,29.608L464,29.604L468,29.587L472,29.56L476,29.524L480,29.482L484,29.438L488,29.397L492,29.362L496,29.338L500,29.327L504,29.329L508,29.345L512,29.371L516,29.406L520,29.445L524,29.482L528,29.514L532,29.535L536,29.542L540,29.534L544,29.511L548,29.474L552,29.428L556,29.377L560,29.327L564,29.283L568,29.25L572,29.229L576,29.221L580,29.224L584,29.234L588,29.248L592,29.259L596,29.265L600,29.262L604,29.251L608,29.234L612,29.215L616,29.197L620,29.187L624,29.187L628,29.198L632,29.22L636,29.25L640,29.283L644,29.313L648,29.335L652,29.344L656,29.338L660,29.317L664,29.284L668,29.244L672,29.2L676,29.159L680,29.123L684,29.093L688,29.067L692,29.042L696,29.011L700,28.967L704,28.905L708,28.819L712,28.709L716,28.575L720,28.422L724,28.257L728,28.089L732,27.93L736,27.789L740,27.676L744,27.601L748,27.569L752,27.585L756,27.649L760,27.759L764,27.911L768,28.096L772,28.306L776,28.528L780,28.753L784,28.971L788,29.173L792,29.354L796,29.508L800,29.637" stroke="#0076BF" stroke-width="2"/></g></g><path class="foreground" aria-hidden="true" d="" display="none"/></g><g transform="translate(0,65)"><path class="background" aria-hidden="true" d="M0.5,0.5h800v30h-800Z"/><g><g class="mark-area role-mark child_layer_0_marks" role="graphics-symbol" aria-roledescription="area mark container"><path d="M0,29.149L4,28.826L8,28.407L12,27.873L16,27.205L20,26.385L24,25.397L28,24.231L32,22.882L36,21.352L40,19.653L44,17.807L48,15.845L52,13.809L56,11.748L60,9.715L64,7.768L68,5.965L72,4.356L76,2.987L80,1.894L84,1.099L88,0.614L92,0.437L96,0.554L100,0.943L104,1.575L108,2.416L112,3.427L116,4.573L120,5.818L124,7.129L128,8.478L132,9.84L136,11.192L140,12.517L144,13.799L148,15.027L152,16.192L156,17.286L160,18.304L164,19.244L168,20.103L172,20.883L176,21.585L180,22.21L184,22.762L188,23.243L192,23.656L196,24.002L200,24.282L204,24.496L208,24.644L212,24.722L216,24.73L220,24.665L224,24.523L228,24.305L232,24.009L236,23.639L240,23.199L244,22.697L248,22.145L252,21.558L256,20.954L260,20.353L264,19.778L268,19.252L272,18.797L276,18.434L280,18.181L284,18.051L288,18.054L292,18.192L296,18.464L300,18.861L304,19.371L308,19.978L312,20.661L316,21.401L320,22.175L324,22.963L328,23.744L332,24.503L336,25.225L340,25.899L344,26.517L348,27.075L352,27.571L356,28.005L360,28.379L364,28.698L368,28.965L372,29.187L376,29.368L380,29.515L384,29.631L388,29.723L392,29.794L396,29.849L400,29.891L404,29.922L408,29.945L412,29.962L416,29.973L420,29.982L424,29.988L428,29.992L432,29.995L436,29.997L440,29.998L444,29.999L448,29.999L452,30L456,30L460,30L464,30L468,30L472,30L476,30L480,30L484,30L488,30L492,30L496,30L500,30L504,30L508,30L512,30L516,30L520,30L524,30L528,30L532,30L536,30L540,30L544,30L548,30L552,30L556,30L560,30L564,30L568,30L572,30L576,30L580,30L584,30L588,30L592,30L596,30L600,30L604,30L608,30L612,30L616,30L620,30L624,30L628,30L632,30L636,30L640,30L644,30L648,30L652,30L656,30L660,30L664,30L668,30L672,30L676,30L680,30L684,30L688,30L692,30L696,30L700,30L704,30L708,30L712,30L716,30L720,30L724,30L728,30L732,30L736,30L740,30L744,30L748,30L752,30L756,30L760,30L764,30L768,30L772,30L776,30L780,30L784,30L788,30L792,30L796,30L800,30L800,30L796,30L792,30L788,30L784,30L780,30L776,30L772,30L768,30L764,30L760,30L756,30L752,30L748,30L744,30L740,30L736,30L732,30L728,30L724,30L720,30L716,30L712,30L708,30L704,30L700,30L696,30L692,30L688,30L684,30L680,30L676,30L672,30L668,30L664,30L660,30L656,30L652,30L648,30L644,30L640,30L636,30L632,30L628,30L624,30L620,30L616,30L612,30L608,30L604,30L600,30L596,30L592,30L588,30L584,30L580,30L576,30L572,30L568,30L564,30L560,30L556,30L552,30L548,30L544,30L540,30L536,30L532,30L528,30L524,30L520,30L516,30L512,30L508,30L504,30L500,30L496,30L492,30L488,30L484,30L480,30L476,30L472,30L468,30L464,30L460,30L456,30L452,30L448,30L444,30L440,30L436,30L432,30L428,30L424,30L420,30L416,30L412,30L408,30L404,30L400,30L396,30L392,30L388,30L384,30L380,30L376,30L372,30L368,30L364,30L360,30L356,30L352,30L348,30L344,30L340,30L336,30L332,30L328,30L324,30L320,30L316,30L312,30L308,30L304,30L300,30L296,30L292,30L288,30L284,30L280,30L276,30L272,30L268,30L264,30L260,30L256,30L252,30L248,30L244,30L240,30L236,30L232,30L228,30L224,30L220,30L216,30L212,30L208,30L204,30L200,30L196,30L192,30L188,30L184,30L180,30L176,30L172,30L168,30L164,30L160,30L156,30L152,30L148,30L144,30L140,30L136,30L132,30L128,30L124,30L120,30L116,30L112,30L108,30L104,30L100,30L96,30L92,30L88,30L84,30L80,30L76,30L72,30L68,30L64,30L60,30L56,30L52,30L48,30L44,30L40,30L36,30L32,30L28,30L24,30L20,30L16,30L12,30L8,30L4,30L0,30Z" fill="url(#gradient_2)" opacity="0.7"/></g><g class="mark-line role-mark child_layer_1_marks" role="graphics-symbol" aria-roledescription="line mark container"><path d="M0,29.149L4,28.826L8,28.407L12,27.873L16,27.205L20,26.385L24,25.397L28,24.231L32,22.882L36,21.352L40,19.653L44,17.807L48,15.845L52,13.809L56,11.748L60,9.715L64,7.768L68,5.965L72,4.356L76,2.987L80,1.894L84,1.099L88,0.614L92,0.437L96,0.554L100,0.943L104,1.575L108,2.416L112,3.427L116,4.573L120,5.818L124,7.129L128,8.478L132,9.84L136,11.192L140,12.517L144,13.799L148,15.027L152,16.192L156,17.286L160,18.304L164,19.244L168,20.103L172,20.883L176,21.585L180,22.21L184,22.762L188,23.243L192,23.656L196,24.002L200,24.282L204,24.496L208,24.644L212,24.722L216,24.73L220,24.665L224,24.523L228,24.305L232,24.009L236,23.639L240,23.199L244,22.697L248,22.145L252,21.558L256,20.954L260,20.353L264,19.778L268,19.252L272,18.797L276,18.434L280,18.181L284,18.051L288,18.054L292,18.192L296,18.464L300,18.861L304,19.371L308,19.978L312,20.661L316,21.401L320,22.175L324,22.963L328,23.744L332,24.503L336,25.225L340,25.899L344,26.517L348,27.075L352,27.571L356,28.005L360,28.379L364,28.698L368,28.965L372,29.187L376,29.368L380,29.515L384,29.631L388,29.723L392,29.794L396,29.849L400,29.891L404,29.922L408,29.945L412,29.962L416,29.973L420,29.982L424,29.988L428,29.992L432,29.995L436,29.997L440,29.998L444,29.999L448,29.999L452,30L456,30L460,30L464,30L468,30L472,30L476,30L480,30L484,30L488,30L492,30L496,30L500,30L504,30L508,30L512,30L516,30L520,30L524,30L528,30L532,30L536,30L540,30L544,30L548,30L552,30L556,30L560,30L564,30L568,30L572,30L576,30L580,30L584,30L588,30L592,30L596,30L600,30L604,30L608,30L612,30L616,30L620,30L624,30L628,30L632,30L636,30L640,30L644,30L648,30L652,30L656,30L660,30L664,30L668,30L672,30L676,30L680,30L684,30L688,30L692,30L696,30L700,30L704,30L708,30L712,30L716,30L720,30L724,30L728,30L732,30L736,30L740,30L744,30L748,30L752,30L756,30L760,30L764,30L768,30L772,30L776,30L780,30L784,30L788,30L792,30L796,30L800,30" stroke="#0076BF" stroke-width="2"/></g></g><path class="foreground" aria-hidden="true" d="" display="none"/></g><g transform="translate(0,130)"><path class="background" aria-hidden="true" d="M0.5,0.5h800v30h-800Z"/><g><g class="mark-area role-mark child_layer_0_marks" role="graphics-symbol" aria-roledescription="area mark container"><path d="M0,30L4,30L8,30L12,30L16,30L20,30L24,30L28,30L32,30L36,30L40,30L44,30L48,30L52,30L56,30L60,30L64,30L68,30L72,30L76,30L80,30L84,30L88,30L92,30L96,30L100,30L104,30L108,30L112,30L116,30L120,30L124,29.999L128,29.998L132,29.995L136,29.99L140,29.979L144,29.957L148,29.917L152,29.846L156,29.725L160,29.528L164,29.218L168,28.753L172,28.082L176,27.155L180,25.927L184,24.367L188,22.467L192,20.246L196,17.755L200,15.071L204,12.287L208,9.506L212,6.822L216,4.315L220,2.044L224,0.046L228,-1.655L232,-3.046L236,-4.115L240,-4.855L244,-5.257L248,-5.314L252,-5.027L256,-4.406L260,-3.473L264,-2.262L268,-0.82L272,0.794L276,2.512L280,4.26L284,5.968L288,7.573L292,9.032L296,10.318L300,11.428L304,12.373L308,13.18L312,13.876L316,14.489L320,15.044L324,15.56L328,16.057L332,16.556L336,17.081L340,17.657L344,18.308L348,19.05L352,19.89L356,20.82L360,21.815L364,22.841L368,23.854L372,24.812L376,25.678L380,26.425L384,27.037L388,27.513L392,27.861L396,28.097L400,28.242L404,28.319L408,28.349L412,28.353L416,28.344L420,28.336L424,28.333L428,28.34L432,28.356L436,28.38L440,28.409L444,28.44L448,28.471L452,28.499L456,28.522L460,28.538L464,28.544L468,28.537L472,28.513L476,28.471L480,28.406L484,28.315L488,28.197L492,28.051L496,27.878L500,27.681L504,27.466L508,27.245L512,27.03L516,26.838L520,26.687L524,26.591L528,26.562L532,26.606L536,26.723L540,26.906L544,27.143L548,27.421L552,27.722L556,28.033L560,28.339L564,28.629L568,28.895L572,29.132L576,29.335L580,29.505L584,29.642L588,29.749L592,29.83L596,29.888L600,29.929L604,29.956L608,29.974L612,29.985L616,29.992L620,29.996L624,29.998L628,29.999L632,30L636,30L640,30L644,30L648,30L652,30L656,30L660,30L664,30L668,30L672,30L676,30L680,30L684,30L688,30L692,30L696,30L700,30L704,30L708,30L712,30L716,30L720,30L724,30L728,30L732,30L736,30L740,30L744,30L748,30L752,30L756,30L760,30L764,30L768,30L772,30L776,30L780,30L784,30L788,30L792,30L796,30L800,30L800,30L796,30L792,30L788,30L784,30L780,30L776,30L772,30L768,30L764,30L760,30L756,30L752,30L748,30L744,30L740,30L736,30L732,30L728,30L724,30L720,30L716,30L712,30L708,30L704,30L700,30L696,30L692,30L688,30L684,30L680,30L676,30L672,30L668,30L664,30L660,30L656,30L652,30L648,30L644,30L640,30L636,30L632,30L628,30L624,30L620,30L616,30L612,30L608,30L604,30L600,30L596,30L592,30L588,30L584,30L580,30L576,30L572,30L568,30L564,30L560,30L556,30L552,30L548,30L544,30L540,30L536,30L532,30L528,30L524,30L520,30L516,30L512,30L508,30L504,30L500,30L496,30L492,30L488,30L484,30L480,30L476,30L472,30L468,30L464,30L460,30L456,30L452,30L448,30L444,30L440,30L436,30L432,30L428,30L424,30L420,30L416,30L412,30L408,30L404,30L400,30L396,30L392,30L388,30L384,30L380,30L376,30L372,30L368,30L364,30L360,30L356,30L352,30L348,30L344,30L340,30L336,30L332,30L328,30L324,30L320,30L316,30L312,30L308,30L304,30L300,30L296,30L292,30L288,30L284,30L280,30L276,30L272,30L268,30L264,30L260,30L256,30L252,30L248,30L244,30L240,30L236,30L232,30L228,30L224,30L220,30L216,30L212,30L208,30L204,30L200,30L196,30L192,30L188,30L184,30L180,30L176,30L172,30L168,30L164,30L160,30L156,30L152,30L148,30L144,30L140,30L136,30L132,30L128,30L124,30L120,30L116,30L112,30L108,30L104,30L100,30L96,30L92,30L88,30L84,30L80,30L76,30L72,30L68,30L64,30L60,30L56,30L52,30L48,30L44,30L40,30L36,30L32,30L28,30L24,30L20,30L16,30L12,30L8,30L4,30L0,30Z" fill="url(#gradient_3)" opacity="0.7"/></g><g class="mark-line role-mark child_layer_1_marks" role="graphics-symbol" aria-roledescription="line mark container"><path d="M0,30L4,30L8,30L12,30L16,30L20,30L24,30L28,30L32,30L36,30L40,30L44,30L48,30L52,30L56,30L60,30L64,30L68,30L72,30L76,30L80,30L84,30L88,30L92,30L96,30L100,30L104,30L108,30L112,30L116,30L120,30L124,29.999L128,29.998L132,29.995L136,29.99L140,29.979L144,29.957L148,29.917L152,29.846L156,29.725L160,29.528L164,29.218L168,28.753L172,28.082L176,27.155L180,25.927L184,24.367L188,22.467L192,20.246L196,17.755L200,15.071L204,12.287L208,9.506L212,6.822L216,4.315L220,2.044L224,0.046L228,-1.655L232,-3.046L236,-4.115L240,-4.855L244,-5.257L248,-5.314L252,-5.027L256,-4.406L260,-3.473L264,-2.262L268,-0.82L272,0.794L276,2.512L280,4.26L284,5.968L288,7.573L292,9.032L296,10.318L300,11.428L304,12.373L308,13.18L312,13.876L316,14.489L320,15.044L324,15.56L328,16.057L332,16.556L336,17.081L340,17.657L344,18.308L348,19.05L352,19.89L356,20.82L360,21.815L364,22.841L368,23.854L372,24.812L376,25.678L380,26.425L384,27.037L388,27.513L392,27.861L396,28.097L400,28.242L404,28.319L408,28.349L412,28.353L416,28.344L420,28.336L424,28.333L428,28.34L432,28.356L436,28.38L440,28.409L444,28.44L448,28.471L452,28.499L456,28.522L460,28.538L464,28.544L468,28.537L472,28.513L476,28.471L480,28.406L484,28.315L488,28.197L492,28.051L496,27.878L500,27.681L504,27.466L508,27.245L512,27.03L516,26.838L520,26.687L524,26.591L528,26.562L532,26.606L536,26.723L540,26.906L544,27.143L548,27.421L552,27.722L556,28.033L560,28.339L564,28.629L568,28.895L572,29.132L576,29.335L580,29.505L584,29.642L588,29.749L592,29.83L596,29.888L600,29.929L604,29.956L608,29.974L612,29.985L616,29.992L620,29.996L624,29.998L628,29.999L632,30L636,30L640,30L644,30L648,30L652,30L656,30L660,30L664,30L668,30L672,30L676,30L680,30L684,30L688,30L692,30L696,30L700,30L704,30L708,30L712,30L716,30L720,30L724,30L728,30L732,30L736,30L740,30L744,30L748,30L752,30L756,30L760,30L764,30L768,30L772,30L776,30L780,30L784,30L788,30L792,30L796,30L800,30" stroke="#0076BF" stroke-width="2"/></g></g><path class="foreground" aria-hidden="true" d="" display="none"/></g><g transform="translate(0,195)"><path class="background" aria-hidden="true" d="M0.5,0.5h800v30h-800Z"/><g><g class="mark-area role-mark child_layer_0_marks" role="graphics-symbol" aria-roledescription="area mark container"><path d="M0,30L4,30L8,30L12,30L16,30L20,30L24,30L28,30L32,30L36,30L40,30L44,30L48,30L52,30L56,30L60,30L64,30L68,30L72,30L76,30L80,30L84,30L88,30L92,30L96,30L100,30L104,30L108,30L112,30L116,30L120,30L124,30L128,30L132,30L136,30L140,30L144,29.999L148,29.999L152,29.998L156,29.997L160,29.995L164,29.992L168,29.986L172,29.978L176,29.964L180,29.945L184,29.915L188,29.872L192,29.812L196,29.728L200,29.613L204,29.461L208,29.262L212,29.007L216,28.689L220,28.3L224,27.834L228,27.287L232,26.66L236,25.957L240,25.185L244,24.356L248,23.486L252,22.594L256,21.699L260,20.821L264,19.98L268,19.191L272,18.468L276,17.819L280,17.247L284,16.75L288,16.324L292,15.959L296,15.644L300,15.367L304,15.114L308,14.874L312,14.635L316,14.388L320,14.125L324,13.84L328,13.529L332,13.189L336,12.822L340,12.428L344,12.011L348,11.58L352,11.142L356,10.71L360,10.298L364,9.922L368,9.6L372,9.349L376,9.184L380,9.118L384,9.159L388,9.309L392,9.564L396,9.915L400,10.345L404,10.836L408,11.365L412,11.908L416,12.446L420,12.959L424,13.435L428,13.868L432,14.255L436,14.602L440,14.918L444,15.216L448,15.512L452,15.818L456,16.15L460,16.516L464,16.924L468,17.377L472,17.875L476,18.415L480,18.99L484,19.592L488,20.213L492,20.841L496,21.469L500,22.085L504,22.681L508,23.248L512,23.78L516,24.271L520,24.716L524,25.113L528,25.461L532,25.763L536,26.02L540,26.237L544,26.422L548,26.581L552,26.722L556,26.852L560,26.979L564,27.108L568,27.243L572,27.389L576,27.546L580,27.715L584,27.894L588,28.081L592,28.273L596,28.466L600,28.655L604,28.839L608,29.011L612,29.171L616,29.316L620,29.445L624,29.556L628,29.652L632,29.731L636,29.796L640,29.848L644,29.888L648,29.92L652,29.943L656,29.961L660,29.973L664,29.982L668,29.988L672,29.992L676,29.995L680,29.997L684,29.998L688,29.999L692,29.999L696,30L700,30L704,30L708,30L712,30L716,30L720,30L724,30L728,30L732,30L736,30L740,30L744,30L748,30L752,30L756,30L760,30L764,30L768,30L772,30L776,30L780,30L784,30L788,30L792,30L796,30L800,30L800,30L796,30L792,30L788,30L784,30L780,30L776,30L772,30L768,30L764,30L760,30L756,30L752,30L748,30L744,30L740,30L736,30L732,30L728,30L724,30L720,30L716,30L712,30L708,30L704,30L700,30L696,30L692,30L688,30L684,30L680,30L676,30L672,30L668,30L664,30L660,30L656,30L652,30L648,30L644,30L640,30L636,30L632,30L628,30L624,30L620,30L616,30L612,30L608,30L604,30L600,30L596,30L592,30L588,30L584,30L580,30L576,30L572,30L568,30L564,30L560,30L556,30L552,30L548,30L544,30L540,30L536,30L532,30L528,30L524,30L520,30L516,30L512,30L508,30L504,30L500,30L496,30L492,30L488,30L484,30L480,30L476,30L472,30L468,30L464,30L460,30L456,30L452,30L448,30L444,30L440,30L436,30L432,30L428,30L424,30L420,30L416,30L412,30L408,30L404,30L400,30L396,30L392,30L388,30L384,30L380,30L376,30L372,30L368,30L364,30L360,30L356,30L352,30L348,30L344,30L340,30L336,30L332,30L328,30L324,30L320,30L316,30L312,30L308,30L304,30L300,30L296,30L292,30L288,30L284,30L280,30L276,30L272,30L268,30L264,30L260,30L256,30L252,30L248,30L244,30L240,30L236,30L232,30L228,30L224,30L220,30L216,30L212,30L208,30L204,30L200,30L196,30L192,30L188,30L184,30L180,30L176,30L172,30L168,30L164,30L160,30L156,30L152,30L148,30L144,30L140,30L136,30L132,30L128,30L124,30L120,30L116,30L112,30L108,30L104,30L100,30L96,30L92,30L88,30L84,30L80,30L76,30L72,30L68,30L64,30L60,30L56,30L52,30L48,30L44,30L40,30L36,30L32,30L28,30L24,30L20,30L16,30L12,30L8,30L4,30L0,30Z" fill="url(#gradient_4)" opacity="0.7"/></g><g class="mark-line role-mark child_layer_1_marks" role="graphics-symbol" aria-roledescription="line mark container"><path d="M0,30L4,30L8,30L12,30L16,30L20,30L24,30L28,30L32,30L36,30L40,30L44,30L48,30L52,30L56,30L60,30L64,30L68,30L72,30L76,30L80,30L84,30L88,30L92,30L96,30L100,30L104,30L108,30L112,30L116,30L120,30L124,30L128,30L132,30L136,30L140,30L144,29.999L148,29.999L152,29.998L156,29.997L160,29.995L164,29.992L168,29.986L172,29.978L176,29.964L180,29.945L184,29.915L188,29.872L192,29.812L196,29.728L200,29.613L204,29.461L208,29.262L212,29.007L216,28.689L220,28.3L224,27.834L228,27.287L232,26.66L236,25.957L240,25.185L244,24.356L248,23.486L252,22.594L256,21.699L260,20.821L264,19.98L268,19.191L272,18.468L276,17.819L280,17.247L284,16.75L288,16.324L292,15.959L296,15.644L300,15.367L304,15.114L308,14.874L312,14.635L316,14.388L320,14.125L324,13.84L328,13.529L332,13.189L336,12.822L340,12.428L344,12.011L348,11.58L352,11.142L356,10.71L360,10.298L364,9.922L368,9.6L372,9.349L376,9.184L380,9.118L384,9.159L388,9.309L392,9.564L396,9.915L400,10.345L404,10.836L408,11.365L412,11.908L416,12.446L420,12.959L424,13.435L428,13.868L432,14.255L436,14.602L440,14.918L444,15.216L448,15.512L452,15.818L456,16.15L460,16.516L464,16.924L468,17.377L472,17.875L476,18.415L480,18.99L484,19.592L488,20.213L492,20.841L496,21.469L500,22.085L504,22.681L508,23.248L512,23.78L516,24.271L520,24.716L524,25.113L528,25.461L532,25.763L536,26.02L540,26.237L544,26.422L548,26.581L552,26.722L556,26.852L560,26.979L564,27.108L568,27.243L572,27.389L576,27.546L580,27.715L584,27.894L588,28.081L592,28.273L596,28.466L600,28.655L604,28.839L608,29.011L612,29.171L616,29.316L620,29.445L624,29.556L628,29.652L632,29.731L636,29.796L640,29.848L644,29.888L648,29.92L652,29.943L656,29.961L660,29.973L664,29.982L668,29.988L672,29.992L676,29.995L680,29.997L684,29.998L688,29.999L692,29.999L696,30L700,30L704,30L708,30L712,30L716,30L720,30L724,30L728,30L732,30L736,30L740,30L744,30L748,30L752,30L756,30L760,30L764,30L768,30L772,30L776,30L780,30L784,30L788,30L792,30L796,30L800,30" stroke="#0076BF" stroke-width="2"/></g></g><path class="foreground" aria-hidden="true" d="" display="none"/></g><g transform="translate(0,260)"><path class="background" aria-hidden="true" d="M0.5,0.5h800v30h-800Z"/><g><g class="mark-area role-mark child_layer_0_marks" role="graphics-symbol" aria-roledescription="area mark container"><path d="M0,30L4,30L8,30L12,30L16,30L20,30L24,30L28,30L32,30L36,30L40,30L44,30L48,30L52,30L56,30L60,30L64,30L68,30L72,30L76,30L80,30L84,30L88,30L92,30L96,30L100,30L104,30L108,30L112,30L116,30L120,30L124,30L128,30L132,30L136,30L140,30L144,30L148,30L152,30L156,30L160,30L164,30L168,30L172,30L176,30L180,30L184,30L188,30L192,29.999L196,29.998L200,29.992L204,29.978L208,29.942L212,29.856L216,29.672L220,29.308L224,28.643L228,27.529L232,25.803L236,23.332L240,20.036L244,15.916L248,11.03L252,5.473L256,-0.636L260,-7.126L264,-13.694L268,-19.836L272,-24.85L276,-27.965L280,-28.577L284,-26.489L288,-22.044L292,-16.077L296,-9.681L300,-3.896L304,0.563L308,3.442L312,4.92L316,5.45L320,5.553L324,5.647L328,5.971L332,6.593L336,7.494L340,8.649L344,10.073L348,11.807L352,13.867L356,16.203L360,18.682L364,21.118L368,23.326L372,25.17L376,26.591L380,27.602L384,28.269L388,28.68L392,28.921L396,29.061L400,29.149L404,29.207L408,29.245L412,29.267L416,29.275L420,29.28L424,29.291L428,29.316L432,29.354L436,29.393L440,29.421L444,29.426L448,29.411L452,29.386L456,29.371L460,29.383L464,29.431L468,29.511L472,29.611L476,29.714L480,29.806L484,29.879L488,29.93L492,29.963L496,29.981L500,29.989L504,29.99L508,29.983L512,29.967L516,29.938L520,29.89L524,29.82L528,29.728L532,29.619L536,29.503L540,29.395L544,29.305L548,29.242L552,29.204L556,29.188L560,29.189L564,29.209L568,29.25L572,29.316L576,29.402L580,29.498L584,29.587L588,29.65L592,29.674L596,29.655L600,29.6L604,29.526L608,29.456L612,29.413L616,29.412L620,29.455L624,29.535L628,29.634L632,29.734L636,29.821L640,29.886L644,29.927L648,29.943L652,29.935L656,29.902L660,29.842L664,29.753L668,29.638L672,29.504L676,29.363L680,29.232L684,29.127L688,29.058L692,29.034L696,29.057L700,29.123L704,29.224L708,29.345L712,29.465L716,29.564L720,29.622L724,29.627L728,29.576L732,29.476L736,29.345L740,29.203L744,29.077L748,28.985L752,28.942L756,28.947L760,28.988L764,29.045L768,29.092L772,29.105L776,29.067L780,28.974L784,28.833L788,28.656L792,28.458L796,28.253L800,28.056L800,30L796,30L792,30L788,30L784,30L780,30L776,30L772,30L768,30L764,30L760,30L756,30L752,30L748,30L744,30L740,30L736,30L732,30L728,30L724,30L720,30L716,30L712,30L708,30L704,30L700,30L696,30L692,30L688,30L684,30L680,30L676,30L672,30L668,30L664,30L660,30L656,30L652,30L648,30L644,30L640,30L636,30L632,30L628,30L624,30L620,30L616,30L612,30L608,30L604,30L600,30L596,30L592,30L588,30L584,30L580,30L576,30L572,30L568,30L564,30L560,30L556,30L552,30L548,30L544,30L540,30L536,30L532,30L528,30L524,30L520,30L516,30L512,30L508,30L504,30L500,30L496,30L492,30L488,30L484,30L480,30L476,30L472,30L468,30L464,30L460,30L456,30L452,30L448,30L444,30L440,30L436,30L432,30L428,30L424,30L420,30L416,30L412,30L408,30L404,30L400,30L396,30L392,30L388,30L384,30L380,30L376,30L372,30L368,30L364,30L360,30L356,30L352,30L348,30L344,30L340,30L336,30L332,30L328,30L324,30L320,30L316,30L312,30L308,30L304,30L300,30L296,30L292,30L288,30L284,30L280,30L276,30L272,30L268,30L264,30L260,30L256,30L252,30L248,30L244,30L240,30L236,30L232,30L228,30L224,30L220,30L216,30L212,30L208,30L204,30L200,30L196,30L192,30L188,30L184,30L180,30L176,30L172,30L168,30L164,30L160,30L156,30L152,30L148,30L144,30L140,30L136,30L132,30L128,30L124,30L120,30L116,30L112,30L108,30L104,30L100,30L96,30L92,30L88,30L84,30L80,30L76,30L72,30L68,30L64,30L60,30L56,30L52,30L48,30L44,30L40,30L36,30L32,30L28,30L24,30L20,30L16,30L12,30L8,30L4,30L0,30Z" fill="url(#gradient_5)" opacity="0.7"/></g><g class="mark-line role-mark child_layer_1_marks" role="graphics-symbol" aria-roledescription="line mark container"><path d="M0,30L4,30L8,30L12,30L16,30L20,30L24,30L28,30L32,30L36,30L40,30L44,30L48,30L52,30L56,30L60,30L64,30L68,30L72,30L76,30L80,30L84,30L88,30L92,30L96,30L100,30L104,30L108,30L112,30L116,30L120,30L124,30L128,30L132,30L136,30L140,30L144,30L148,30L152,30L156,30L160,30L164,30L168,30L172,30L176,30L180,30L184,30L188,30L192,29.999L196,29.998L200,29.992L204,29.978L208,29.942L212,29.856L216,29.672L220,29.308L224,28.643L228,27.529L232,25.803L236,23.332L240,20.036L244,15.916L248,11.03L252,5.473L256,-0.636L260,-7.126L264,-13.694L268,-19.836L272,-24.85L276,-27.965L280,-28.577L284,-26.489L288,-22.044L292,-16.077L296,-9.681L300,-3.896L304,0.563L308,3.442L312,4.92L316,5.45L320,5.553L324,5.647L328,5.971L332,6.593L336,7.494L340,8.649L344,10.073L348,11.807L352,13.867L356,16.203L360,18.682L364,21.118L368,23.326L372,25.17L376,26.591L380,27.602L384,28.269L388,28.68L392,28.921L396,29.061L400,29.149L404,29.207L408,29.245L412,29.267L416,29.275L420,29.28L424,29.291L428,29.316L432,29.354L436,29.393L440,29.421L444,29.426L448,29.411L452,29.386L456,29.371L460,29.383L464,29.431L468,29.511L472,29.611L476,29.714L480,29.806L484,29.879L488,29.93L492,29.963L496,29.981L500,29.989L504,29.99L508,29.983L512,29.967L516,29.938L520,29.89L524,29.82L528,29.728L532,29.619L536,29.503L540,29.395L544,29.305L548,29.242L552,29.204L556,29.188L560,29.189L564,29.209L568,29.25L572,29.316L576,29.402L580,29.498L584,29.587L588,29.65L592,29.674L596,29.655L600,29.6L604,29.526L608,29.456L612,29.413L616,29.412L620,29.455L624,29.535L628,29.634L632,29.734L636,29.821L640,29.886L644,29.927L648,29.943L652,29.935L656,29.902L660,29.842L664,29.753L668,29.638L672,29.504L676,29.363L680,29.232L684,29.127L688,29.058L692,29.034L696,29.057L700,29.123L704,29.224L708,29.345L712,29.465L716,29.564L720,29.622L724,29.627L728,29.576L732,29.476L736,29.345L740,29.203L744,29.077L748,28.985L752,28.942L756,28.947L760,28.988L764,29.045L768,29.092L772,29.105L776,29.067L780,28.974L784,28.833L788,28.656L792,28.458L796,28.253L800,28.056" stroke="#0076BF" stroke-width="2"/></g></g><path class="foreground" aria-hidden="true" d="" display="none"/></g><g transform="translate(0,325)"><path class="background" aria-hidden="true" d="M0.5,0.5h800v30h-800Z"/><g><g class="mark-area role-mark child_layer_0_marks" role="graphics-symbol" aria-roledescription="area mark container"><path d="M0,30L4,30L8,30L12,30L16,30L20,30L24,30L28,30L32,30L36,30L40,30L44,30L48,30L52,30L56,30L60,30L64,30L68,30L72,30L76,30L80,29.999L84,29.999L88,29.999L92,29.998L96,29.997L100,29.995L104,29.993L108,29.991L112,29.987L116,29.981L120,29.974L124,29.965L128,29.952L132,29.936L136,29.915L140,29.888L144,29.854L148,29.813L152,29.762L156,29.7L160,29.627L164,29.539L168,29.437L172,29.319L176,29.185L180,29.032L184,28.862L188,28.673L192,28.467L196,28.243L200,28.001L204,27.743L208,27.467L212,27.175L216,26.866L220,26.539L224,26.191L228,25.82L232,25.423L236,24.993L240,24.527L244,24.018L248,23.459L252,22.846L256,22.171L260,21.431L264,20.623L268,19.746L272,18.804L276,17.8L280,16.744L284,15.647L288,14.525L292,13.395L296,12.277L300,11.195L304,10.171L308,9.228L312,8.388L316,7.673L320,7.1L324,6.682L328,6.431L332,6.35L336,6.44L340,6.697L344,7.112L348,7.669L352,8.353L356,9.142L360,10.015L364,10.946L368,11.914L372,12.893L376,13.861L380,14.799L384,15.688L388,16.514L392,17.265L396,17.932L400,18.511L404,18.999L408,19.397L412,19.709L416,19.941L420,20.102L424,20.201L428,20.249L432,20.258L436,20.241L440,20.209L444,20.175L448,20.148L452,20.139L456,20.156L460,20.204L464,20.289L468,20.412L472,20.576L476,20.777L480,21.015L484,21.286L488,21.585L492,21.908L496,22.248L500,22.602L504,22.964L508,23.33L512,23.697L516,24.06L520,24.418L524,24.767L528,25.108L532,25.438L536,25.756L540,26.062L544,26.354L548,26.632L552,26.895L556,27.142L560,27.372L564,27.586L568,27.782L572,27.961L576,28.121L580,28.264L584,28.39L588,28.499L592,28.591L596,28.668L600,28.731L604,28.78L608,28.816L612,28.84L616,28.853L620,28.856L624,28.848L628,28.831L632,28.805L636,28.77L640,28.727L644,28.677L648,28.621L652,28.559L656,28.494L660,28.426L664,28.358L668,28.292L672,28.229L676,28.173L680,28.126L684,28.089L688,28.064L692,28.054L696,28.058L700,28.079L704,28.115L708,28.167L712,28.234L716,28.314L720,28.405L724,28.506L728,28.615L732,28.728L736,28.843L740,28.958L744,29.072L748,29.181L752,29.285L756,29.383L760,29.472L764,29.553L768,29.626L772,29.69L776,29.746L780,29.794L784,29.835L788,29.869L792,29.897L796,29.92L800,29.938L800,30L796,30L792,30L788,30L784,30L780,30L776,30L772,30L768,30L764,30L760,30L756,30L752,30L748,30L744,30L740,30L736,30L732,30L728,30L724,30L720,30L716,30L712,30L708,30L704,30L700,30L696,30L692,30L688,30L684,30L680,30L676,30L672,30L668,30L664,30L660,30L656,30L652,30L648,30L644,30L640,30L636,30L632,30L628,30L624,30L620,30L616,30L612,30L608,30L604,30L600,30L596,30L592,30L588,30L584,30L580,30L576,30L572,30L568,30L564,30L560,30L556,30L552,30L548,30L544,30L540,30L536,30L532,30L528,30L524,30L520,30L516,30L512,30L508,30L504,30L500,30L496,30L492,30L488,30L484,30L480,30L476,30L472,30L468,30L464,30L460,30L456,30L452,30L448,30L444,30L440,30L436,30L432,30L428,30L424,30L420,30L416,30L412,30L408,30L404,30L400,30L396,30L392,30L388,30L384,30L380,30L376,30L372,30L368,30L364,30L360,30L356,30L352,30L348,30L344,30L340,30L336,30L332,30L328,30L324,30L320,30L316,30L312,30L308,30L304,30L300,30L296,30L292,30L288,30L284,30L280,30L276,30L272,30L268,30L264,30L260,30L256,30L252,30L248,30L244,30L240,30L236,30L232,30L228,30L224,30L220,30L216,30L212,30L208,30L204,30L200,30L196,30L192,30L188,30L184,30L180,30L176,30L172,30L168,30L164,30L160,30L156,30L152,30L148,30L144,30L140,30L136,30L132,30L128,30L124,30L120,30L116,30L112,30L108,30L104,30L100,30L96,30L92,30L88,30L84,30L80,30L76,30L72,30L68,30L64,30L60,30L56,30L52,30L48,30L44,30L40,30L36,30L32,30L28,30L24,30L20,30L16,30L12,30L8,30L4,30L0,30Z" fill="url(#gradient_6)" opacity="0.7"/></g><g class="mark-line role-mark child_layer_1_marks" role="graphics-symbol" aria-roledescription="line mark container"><path d="M0,30L4,30L8,30L12,30L16,30L20,30L24,30L28,30L32,30L36,30L40,30L44,30L48,30L52,30L56,30L60,30L64,30L68,30L72,30L76,30L80,29.999L84,29.999L88,29.999L92,29.998L96,29.997L100,29.995L104,29.993L108,29.991L112,29.987L116,29.981L120,29.974L124,29.965L128,29.952L132,29.936L136,29.915L140,29.888L144,29.854L148,29.813L152,29.762L156,29.7L160,29.627L164,29.539L168,29.437L172,29.319L176,29.185L180,29.032L184,28.862L188,28.673L192,28.467L196,28.243L200,28.001L204,27.743L208,27.467L212,27.175L216,26.866L220,26.539L224,26.191L228,25.82L232,25.423L236,24.993L240,24.527L244,24.018L248,23.459L252,22.846L256,22.171L260,21.431L264,20.623L268,19.746L272,18.804L276,17.8L280,16.744L284,15.647L288,14.525L292,13.395L296,12.277L300,11.195L304,10.171L308,9.228L312,8.388L316,7.673L320,7.1L324,6.682L328,6.431L332,6.35L336,6.44L340,6.697L344,7.112L348,7.669L352,8.353L356,9.142L360,10.015L364,10.946L368,11.914L372,12.893L376,13.861L380,14.799L384,15.688L388,16.514L392,17.265L396,17.932L400,18.511L404,18.999L408,19.397L412,19.709L416,19.941L420,20.102L424,20.201L428,20.249L432,20.258L436,20.241L440,20.209L444,20.175L448,20.148L452,20.139L456,20.156L460,20.204L464,20.289L468,20.412L472,20.576L476,20.777L480,21.015L484,21.286L488,21.585L492,21.908L496,22.248L500,22.602L504,22.964L508,23.33L512,23.697L516,24.06L520,24.418L524,24.767L528,25.108L532,25.438L536,25.756L540,26.062L544,26.354L548,26.632L552,26.895L556,27.142L560,27.372L564,27.586L568,27.782L572,27.961L576,28.121L580,28.264L584,28.39L588,28.499L592,28.591L596,28.668L600,28.731L604,28.78L608,28.816L612,28.84L616,28.853L620,28.856L624,28.848L628,28.831L632,28.805L636,28.77L640,28.727L644,28.677L648,28.621L652,28.559L656,28.494L660,28.426L664,28.358L668,28.292L672,28.229L676,28.173L680,28.126L684,28.089L688,28.064L692,28.054L696,28.058L700,28.079L704,28.115L708,28.167L712,28.234L716,28.314L720,28.405L724,28.506L728,28.615L732,28.728L736,28.843L740,28.958L744,29.072L748,29.181L752,29.285L756,29.383L760,29.472L764,29.553L768,29.626L772,29.69L776,29.746L780,29.794L784,29.835L788,29.869L792,29.897L796,29.92L800,29.938" stroke="#0076BF" stroke-width="2"/></g></g><path class="foreground" aria-hidden="true" d="" display="none"/></g><g transform="translate(0,390)"><path class="background" aria-hidden="true" d="M0.5,0.5h800v30h-800Z"/><g><g class="mark-area role-mark child_layer_0_marks" role="graphics-symbol" aria-roledescription="area mark container"><path d="M0,30L4,30L8,30L12,30L16,30L20,30L24,30L28,30L32,30L36,30L40,30L44,30L48,30L52,30L56,30L60,30L64,30L68,30L72,30L76,30L80,29.999L84,29.998L88,29.994L92,29.981L96,29.947L100,29.864L104,29.678L108,29.296L112,28.569L116,27.297L120,25.246L124,22.198L128,18.022L132,12.756L136,6.656L140,0.194L144,-6.019L148,-11.362L152,-15.36L156,-17.803L160,-18.785L164,-18.637L168,-17.79L172,-16.613L176,-15.312L180,-13.916L184,-12.343L188,-10.491L192,-8.301L196,-5.793L200,-3.061L204,-0.263L208,2.4L212,4.728L216,6.586L220,7.965L224,9.005L228,9.972L232,11.16L236,12.79L240,14.919L244,17.429L248,20.072L252,22.57L256,24.702L260,26.363L264,27.56L268,28.373L272,28.909L276,29.26L280,29.49L284,29.631L288,29.695L292,29.685L296,29.604L300,29.46L304,29.275L308,29.082L312,28.921L316,28.829L320,28.829L324,28.921L328,29.083L332,29.277L336,29.464L340,29.612L344,29.7L348,29.722L352,29.681L356,29.589L360,29.465L364,29.327L368,29.199L372,29.097L376,29.035L380,29.019L384,29.049L388,29.119L392,29.217L396,29.323L400,29.414L404,29.468L408,29.472L412,29.423L416,29.333L420,29.223L424,29.117L428,29.038L432,28.999L436,29.007L440,29.061L444,29.148L448,29.25L452,29.342L456,29.399L460,29.405L464,29.352L468,29.25L472,29.117L476,28.973L480,28.834L484,28.698L488,28.547L492,28.35L496,28.074L500,27.703L504,27.249L508,26.76L512,26.308L516,25.977L520,25.834L524,25.913L528,26.212L532,26.687L536,27.271L540,27.888L544,28.468L548,28.962L552,29.344L556,29.614L560,29.79L564,29.894L568,29.951L572,29.979L576,29.992L580,29.997L584,29.999L588,30L592,30L596,30L600,30L604,30L608,30L612,30L616,30L620,30L624,30L628,30L632,30L636,30L640,30L644,30L648,30L652,30L656,30L660,30L664,30L668,30L672,30L676,30L680,30L684,30L688,30L692,30L696,30L700,30L704,30L708,30L712,30L716,30L720,30L724,30L728,30L732,30L736,30L740,30L744,30L748,30L752,30L756,30L760,30L764,30L768,30L772,30L776,30L780,30L784,30L788,30L792,30L796,30L800,30L800,30L796,30L792,30L788,30L784,30L780,30L776,30L772,30L768,30L764,30L760,30L756,30L752,30L748,30L744,30L740,30L736,30L732,30L728,30L724,30L720,30L716,30L712,30L708,30L704,30L700,30L696,30L692,30L688,30L684,30L680,30L676,30L672,30L668,30L664,30L660,30L656,30L652,30L648,30L644,30L640,30L636,30L632,30L628,30L624,30L620,30L616,30L612,30L608,30L604,30L600,30L596,30L592,30L588,30L584,30L580,30L576,30L572,30L568,30L564,30L560,30L556,30L552,30L548,30L544,30L540,30L536,30L532,30L528,30L524,30L520,30L516,30L512,30L508,30L504,30L500,30L496,30L492,30L488,30L484,30L480,30L476,30L472,30L468,30L464,30L460,30L456,30L452,30L448,30L444,30L440,30L436,30L432,30L428,30L424,30L420,30L416,30L412,30L408,30L404,30L400,30L396,30L392,30L388,30L384,30L380,30L376,30L372,30L368,30L364,30L360,30L356,30L352,30L348,30L344,30L340,30L336,30L332,30L328,30L324,30L320,30L316,30L312,30L308,30L304,30L300,30L296,30L292,30L288,30L284,30L280,30L276,30L272,30L268,30L264,30L260,30L256,30L252,30L248,30L244,30L240,30L236,30L232,30L228,30L224,30L220,30L216,30L212,30L208,30L204,30L200,30L196,30L192,30L188,30L184,30L180,30L176,30L172,30L168,30L164,30L160,30L156,30L152,30L148,30L144,30L140,30L136,30L132,30L128,30L124,30L120,30L116,30L112,30L108,30L104,30L100,30L96,30L92,30L88,30L84,30L80,30L76,30L72,30L68,30L64,30L60,30L56,30L52,30L48,30L44,30L40,30L36,30L32,30L28,30L24,30L20,30L16,30L12,30L8,30L4,30L0,30Z" fill="url(#gradient_7)" opacity="0.7"/></g><g class="mark-line role-mark child_layer_1_marks" role="graphics-symbol" aria-roledescription="line mark container"><path d="M0,30L4,30L8,30L12,30L16,30L20,30L24,30L28,30L32,30L36,30L40,30L44,30L48,30L52,30L56,30L60,30L64,30L68,30L72,30L76,30L80,29.999L84,29.998L88,29.994L92,29.981L96,29.947L100,29.864L104,29.678L108,29.296L112,28.569L116,27.297L120,25.246L124,22.198L128,18.022L132,12.756L136,6.656L140,0.194L144,-6.019L148,-11.362L152,-15.36L156,-17.803L160,-18.785L164,-18.637L168,-17.79L172,-16.613L176,-15.312L180,-13.916L184,-12.343L188,-10.491L192,-8.301L196,-5.793L200,-3.061L204,-0.263L208,2.4L212,4.728L216,6.586L220,7.965L224,9.005L228,9.972L232,11.16L236,12.79L240,14.919L244,17.429L248,20.072L252,22.57L256,24.702L260,26.363L264,27.56L268,28.373L272,28.909L276,29.26L280,29.49L284,29.631L288,29.695L292,29.685L296,29.604L300,29.46L304,29.275L308,29.082L312,28.921L316,28.829L320,28.829L324,28.921L328,29.083L332,29.277L336,29.464L340,29.612L344,29.7L348,29.722L352,29.681L356,29.589L360,29.465L364,29.327L368,29.199L372,29.097L376,29.035L380,29.019L384,29.049L388,29.119L392,29.217L396,29.323L400,29.414L404,29.468L408,29.472L412,29.423L416,29.333L420,29.223L424,29.117L428,29.038L432,28.999L436,29.007L440,29.061L444,29.148L448,29.25L452,29.342L456,29.399L460,29.405L464,29.352L468,29.25L472,29.117L476,28.973L480,28.834L484,28.698L488,28.547L492,28.35L496,28.074L500,27.703L504,27.249L508,26.76L512,26.308L516,25.977L520,25.834L524,25.913L528,26.212L532,26.687L536,27.271L540,27.888L544,28.468L548,28.962L552,29.344L556,29.614L560,29.79L564,29.894L568,29.951L572,29.979L576,29.992L580,29.997L584,29.999L588,30L592,30L596,30L600,30L604,30L608,30L612,30L616,30L620,30L624,30L628,30L632,30L636,30L640,30L644,30L648,30L652,30L656,30L660,30L664,30L668,30L672,30L676,30L680,30L684,30L688,30L692,30L696,30L700,30L704,30L708,30L712,30L716,30L720,30L724,30L728,30L732,30L736,30L740,30L744,30L748,30L752,30L756,30L760,30L764,30L768,30L772,30L776,30L780,30L784,30L788,30L792,30L796,30L800,30" stroke="#0076BF" stroke-width="2"/></g></g><path class="foreground" aria-hidden="true" d="" display="none"/></g></g><g class="mark-group role-title"><g transform="translate(-26.8916015625,-52.637080449933805)"><path class="background" aria-hidden="true" d="M0,0h0v0h0Z" pointer-events="none"/><g><g class="mark-text role-title-text" role="graphics-symbol" aria-roledescription="title" aria-label="Title text 'Recipiency rates have different ranges in the largest states'" pointer-events="none"><text text-anchor="start" transform="translate(0,10)" font-family="sans-serif" font-size="13px" font-weight="bold" fill="#000" opacity="1">Recipiency rates have different ranges in the largest states</text></g><g class="mark-text role-title-subtitle" role="graphics-symbol" aria-roledescription="subtitle" aria-label="Subtitle text 'Density of recipiency rates between 2006-2024'" pointer-events="none"><text text-anchor="start" transform="translate(0,25)" font-family="sans-serif" font-size="12px" fill="#000" opacity="1">Density of recipiency rates between 2006-2024</text></g></g><path class="foreground" aria-hidden="true" d="" pointer-events="none" display="none"/></g></g></g><path class="foreground" aria-hidden="true" d="" display="none"/></g></g></g><defs><linearGradient id="gradient_1" x1="1" x2="1" y1="1" y2="0"><stop offset="0" stop-color="#0076BF50"/><stop offset="1" stop-color="#0076BF"/></linearGradient><linearGradient id="gradient_2" x1="1" x2="1" y1="1" y2="0"><stop offset="0" stop-color="#0076BF50"/><stop offset="1" stop-color="#0076BF"/></linearGradient><linearGradient id="gradient_3" x1="1" x2="1" y1="1" y2="0"><stop offset="0" stop-color="#0076BF50"/><stop offset="1" stop-color="#0076BF"/></linearGradient><linearGradient id="gradient_4" x1="1" x2="1" y1="1" y2="0"><stop offset="0" stop-color="#0076BF50"/><stop offset="1" stop-color="#0076BF"/></linearGradient><linearGradient id="gradient_5" x1="1" x2="1" y1="1" y2="0"><stop offset="0" stop-color="#0076BF50"/><stop offset="1" stop-color="#0076BF"/></linearGradient><linearGradient id="gradient_6" x1="1" x2="1" y1="1" y2="0"><stop offset="0" stop-color="#0076BF50"/><stop offset="1" stop-color="#0076BF"/></linearGradient><linearGradient id="gradient_7" x1="1" x2="1" y1="1" y2="0"><stop offset="0" stop-color="#0076BF50"/><stop offset="1" stop-color="#0076BF"/></linearGradient></defs></svg>